G04 #@! TF.GenerationSoftware,KiCad,Pcbnew,5.1.5-1.fc30*
G04 #@! TF.CreationDate,2021-07-11T15:27:42+02:00*
G04 #@! TF.ProjectId,wire-haloscope,77697265-2d68-4616-9c6f-73636f70652e,rev?*
G04 #@! TF.SameCoordinates,Original*
G04 #@! TF.FileFunction,Copper,L1,Top*
G04 #@! TF.FilePolarity,Positive*
%FSLAX46Y46*%
G04 Gerber Fmt 4.6, Leading zero omitted, Abs format (unit mm)*
G04 Created by KiCad (PCBNEW 5.1.5-1.fc30) date 2021-07-11 15:27:42*
%MOMM*%
%LPD*%
G04 APERTURE LIST*
%ADD10R,0.600000X2.000000*%
%ADD11C,2.400000*%
%ADD12C,0.100000*%
%ADD13C,0.508000*%
%ADD14C,0.254000*%
G04 APERTURE END LIST*
D10*
X145000000Y-137000000D03*
X140000000Y-137000000D03*
X135000000Y-137000000D03*
X130000000Y-137000000D03*
X125000000Y-137000000D03*
X120000000Y-137000000D03*
X115000000Y-137000000D03*
X110000000Y-137000000D03*
X105000000Y-137000000D03*
X100000000Y-137000000D03*
X95000000Y-137000000D03*
X90000000Y-137000000D03*
X85000000Y-137000000D03*
X80000000Y-137000000D03*
X75000000Y-137000000D03*
X70000000Y-137000000D03*
X65000000Y-137000000D03*
X60000000Y-137000000D03*
X55000000Y-137000000D03*
X145000000Y-53000000D03*
X140000000Y-53000000D03*
X135000000Y-53000000D03*
X130000000Y-53000000D03*
X125000000Y-53000000D03*
X120000000Y-53000000D03*
X115000000Y-53000000D03*
X110000000Y-53000000D03*
X105000000Y-53000000D03*
X100000000Y-53000000D03*
X95000000Y-53000000D03*
X90000000Y-53000000D03*
X85000000Y-53000000D03*
X80000000Y-53000000D03*
X75000000Y-53000000D03*
X70000000Y-53000000D03*
X65000000Y-53000000D03*
X60000000Y-53000000D03*
X55000000Y-53000000D03*
D11*
X55000000Y-50000000D03*
X76500000Y-50000000D03*
X100000000Y-50000000D03*
X122500000Y-50000000D03*
X145000000Y-50000000D03*
X55000000Y-140000000D03*
X76500000Y-140000000D03*
X100000000Y-140000000D03*
X122500000Y-140000000D03*
X145000000Y-140000000D03*
D12*
X76500000Y-50000000D02*
X75300001Y-51199999D01*
X75300001Y-51199999D02*
X75000000Y-51500000D01*
X75000000Y-51500000D02*
X75000000Y-53000000D01*
D13*
X100000000Y-140000000D02*
X100000000Y-137000000D01*
X100000000Y-53000000D02*
X100000000Y-50000000D01*
X145000000Y-53000000D02*
X145000000Y-50000000D01*
X105000000Y-53000000D02*
X105000000Y-51000000D01*
X110000000Y-51492000D02*
X109500000Y-50992000D01*
X110000000Y-53000000D02*
X110000000Y-51492000D01*
X95000000Y-53000000D02*
X95000000Y-51500000D01*
X90000000Y-51492000D02*
X90500000Y-50992000D01*
X90000000Y-53000000D02*
X90000000Y-51492000D01*
X80000000Y-51492000D02*
X80500000Y-50992000D01*
X80000000Y-53000000D02*
X80000000Y-51492000D01*
X85000000Y-53000000D02*
X85000000Y-50500000D01*
X75000000Y-53000000D02*
X75000000Y-51492000D01*
X90000000Y-137000000D02*
X90000000Y-139000000D01*
X80000000Y-137000000D02*
X80000000Y-139000000D01*
X75000000Y-137000000D02*
X75000000Y-138500000D01*
X70000000Y-137000000D02*
X70000000Y-139500000D01*
X65000000Y-137000000D02*
X65000000Y-139500000D01*
X60000000Y-137000000D02*
X60000000Y-139000000D01*
X120000000Y-137000000D02*
X120000000Y-138508000D01*
X115000000Y-137000000D02*
X115000000Y-139500000D01*
X110000000Y-137000000D02*
X110000000Y-139500000D01*
X125000000Y-137000000D02*
X125000000Y-138508000D01*
X130000000Y-138508000D02*
X129500000Y-139008000D01*
X130000000Y-137000000D02*
X130000000Y-138508000D01*
X140000000Y-137000000D02*
X140000000Y-138508000D01*
X145000000Y-137000000D02*
X145000000Y-140000000D01*
X135000000Y-137000000D02*
X135000000Y-140000000D01*
X130000000Y-137000000D02*
X130000000Y-140000000D01*
X60000000Y-53000000D02*
X60000000Y-51492000D01*
X65000000Y-53000000D02*
X65000000Y-50500000D01*
X115000000Y-53000000D02*
X115000000Y-51000000D01*
X115000000Y-51000000D02*
X115000000Y-50500000D01*
X120000000Y-53000000D02*
X120000000Y-51000000D01*
X125000000Y-53000000D02*
X125000000Y-50500000D01*
X130000000Y-53000000D02*
X130000000Y-50500000D01*
X135000000Y-53000000D02*
X135000000Y-50000000D01*
X140000000Y-51492000D02*
X140500000Y-50992000D01*
X140000000Y-53000000D02*
X140000000Y-51492000D01*
X85000000Y-137000000D02*
X85000000Y-138508000D01*
X95000000Y-137000000D02*
X95000000Y-140000000D01*
X110000000Y-137000000D02*
X110000000Y-140500000D01*
X105000000Y-137000000D02*
X105000000Y-140000000D01*
X55000000Y-137000000D02*
X55000000Y-140000000D01*
X65000000Y-53000000D02*
X65000000Y-51492000D01*
X70000000Y-53000000D02*
X70000000Y-50000000D01*
X65000000Y-51492000D02*
X65000000Y-50000000D01*
X55000000Y-53000000D02*
X55000000Y-50000000D01*
D14*
G36*
X148873000Y-51873000D02*
G01*
X145925048Y-51873000D01*
X145889502Y-51755820D01*
X145830537Y-51645506D01*
X145828489Y-51643011D01*
X145978486Y-51562836D01*
X146098374Y-51277980D01*
X145000000Y-50179605D01*
X143901626Y-51277980D01*
X144021514Y-51562836D01*
X144174794Y-51639010D01*
X144169463Y-51645506D01*
X144110498Y-51755820D01*
X144074952Y-51873000D01*
X140925048Y-51873000D01*
X140889502Y-51755820D01*
X140830537Y-51645506D01*
X140751185Y-51548815D01*
X140654494Y-51469463D01*
X140544180Y-51410498D01*
X140424482Y-51374188D01*
X140300000Y-51361928D01*
X140285750Y-51365000D01*
X140127000Y-51523750D01*
X140127000Y-51873000D01*
X139873000Y-51873000D01*
X139873000Y-51523750D01*
X139714250Y-51365000D01*
X139700000Y-51361928D01*
X139575518Y-51374188D01*
X139455820Y-51410498D01*
X139345506Y-51469463D01*
X139248815Y-51548815D01*
X139169463Y-51645506D01*
X139110498Y-51755820D01*
X139074952Y-51873000D01*
X135925048Y-51873000D01*
X135889502Y-51755820D01*
X135830537Y-51645506D01*
X135751185Y-51548815D01*
X135654494Y-51469463D01*
X135544180Y-51410498D01*
X135424482Y-51374188D01*
X135300000Y-51361928D01*
X135285750Y-51365000D01*
X135127000Y-51523750D01*
X135127000Y-51873000D01*
X134873000Y-51873000D01*
X134873000Y-51523750D01*
X134714250Y-51365000D01*
X134700000Y-51361928D01*
X134575518Y-51374188D01*
X134455820Y-51410498D01*
X134345506Y-51469463D01*
X134248815Y-51548815D01*
X134169463Y-51645506D01*
X134110498Y-51755820D01*
X134074952Y-51873000D01*
X130925048Y-51873000D01*
X130889502Y-51755820D01*
X130830537Y-51645506D01*
X130751185Y-51548815D01*
X130654494Y-51469463D01*
X130544180Y-51410498D01*
X130424482Y-51374188D01*
X130300000Y-51361928D01*
X130285750Y-51365000D01*
X130127000Y-51523750D01*
X130127000Y-51873000D01*
X129873000Y-51873000D01*
X129873000Y-51523750D01*
X129714250Y-51365000D01*
X129700000Y-51361928D01*
X129575518Y-51374188D01*
X129455820Y-51410498D01*
X129345506Y-51469463D01*
X129248815Y-51548815D01*
X129169463Y-51645506D01*
X129110498Y-51755820D01*
X129074952Y-51873000D01*
X125925048Y-51873000D01*
X125889502Y-51755820D01*
X125830537Y-51645506D01*
X125751185Y-51548815D01*
X125654494Y-51469463D01*
X125544180Y-51410498D01*
X125424482Y-51374188D01*
X125300000Y-51361928D01*
X125285750Y-51365000D01*
X125127000Y-51523750D01*
X125127000Y-51873000D01*
X124873000Y-51873000D01*
X124873000Y-51523750D01*
X124714250Y-51365000D01*
X124700000Y-51361928D01*
X124575518Y-51374188D01*
X124455820Y-51410498D01*
X124345506Y-51469463D01*
X124248815Y-51548815D01*
X124169463Y-51645506D01*
X124110498Y-51755820D01*
X124074952Y-51873000D01*
X120925048Y-51873000D01*
X120889502Y-51755820D01*
X120830537Y-51645506D01*
X120751185Y-51548815D01*
X120654494Y-51469463D01*
X120544180Y-51410498D01*
X120424482Y-51374188D01*
X120300000Y-51361928D01*
X120285750Y-51365000D01*
X120127000Y-51523750D01*
X120127000Y-51873000D01*
X119873000Y-51873000D01*
X119873000Y-51523750D01*
X119714250Y-51365000D01*
X119700000Y-51361928D01*
X119575518Y-51374188D01*
X119455820Y-51410498D01*
X119345506Y-51469463D01*
X119248815Y-51548815D01*
X119169463Y-51645506D01*
X119110498Y-51755820D01*
X119074952Y-51873000D01*
X115925048Y-51873000D01*
X115889502Y-51755820D01*
X115830537Y-51645506D01*
X115751185Y-51548815D01*
X115654494Y-51469463D01*
X115544180Y-51410498D01*
X115424482Y-51374188D01*
X115300000Y-51361928D01*
X115285750Y-51365000D01*
X115127000Y-51523750D01*
X115127000Y-51873000D01*
X114873000Y-51873000D01*
X114873000Y-51523750D01*
X114714250Y-51365000D01*
X114700000Y-51361928D01*
X114575518Y-51374188D01*
X114455820Y-51410498D01*
X114345506Y-51469463D01*
X114248815Y-51548815D01*
X114169463Y-51645506D01*
X114110498Y-51755820D01*
X114074952Y-51873000D01*
X110925048Y-51873000D01*
X110889502Y-51755820D01*
X110830537Y-51645506D01*
X110751185Y-51548815D01*
X110654494Y-51469463D01*
X110544180Y-51410498D01*
X110424482Y-51374188D01*
X110300000Y-51361928D01*
X110285750Y-51365000D01*
X110127000Y-51523750D01*
X110127000Y-51873000D01*
X109873000Y-51873000D01*
X109873000Y-51523750D01*
X109714250Y-51365000D01*
X109700000Y-51361928D01*
X109575518Y-51374188D01*
X109455820Y-51410498D01*
X109345506Y-51469463D01*
X109248815Y-51548815D01*
X109169463Y-51645506D01*
X109110498Y-51755820D01*
X109074952Y-51873000D01*
X105925048Y-51873000D01*
X105889502Y-51755820D01*
X105830537Y-51645506D01*
X105751185Y-51548815D01*
X105654494Y-51469463D01*
X105544180Y-51410498D01*
X105424482Y-51374188D01*
X105300000Y-51361928D01*
X105285750Y-51365000D01*
X105127000Y-51523750D01*
X105127000Y-51873000D01*
X104873000Y-51873000D01*
X104873000Y-51523750D01*
X104714250Y-51365000D01*
X104700000Y-51361928D01*
X104575518Y-51374188D01*
X104455820Y-51410498D01*
X104345506Y-51469463D01*
X104248815Y-51548815D01*
X104169463Y-51645506D01*
X104110498Y-51755820D01*
X104074952Y-51873000D01*
X100925048Y-51873000D01*
X100889502Y-51755820D01*
X100830537Y-51645506D01*
X100828489Y-51643011D01*
X100978486Y-51562836D01*
X101098374Y-51277980D01*
X121401626Y-51277980D01*
X121521514Y-51562836D01*
X121845210Y-51723699D01*
X122194069Y-51818322D01*
X122554684Y-51843067D01*
X122913198Y-51796985D01*
X123255833Y-51681846D01*
X123478486Y-51562836D01*
X123598374Y-51277980D01*
X122500000Y-50179605D01*
X121401626Y-51277980D01*
X101098374Y-51277980D01*
X100000000Y-50179605D01*
X98901626Y-51277980D01*
X99021514Y-51562836D01*
X99174794Y-51639010D01*
X99169463Y-51645506D01*
X99110498Y-51755820D01*
X99074952Y-51873000D01*
X95925048Y-51873000D01*
X95889502Y-51755820D01*
X95830537Y-51645506D01*
X95751185Y-51548815D01*
X95654494Y-51469463D01*
X95544180Y-51410498D01*
X95424482Y-51374188D01*
X95300000Y-51361928D01*
X95285750Y-51365000D01*
X95127000Y-51523750D01*
X95127000Y-51873000D01*
X94873000Y-51873000D01*
X94873000Y-51523750D01*
X94714250Y-51365000D01*
X94700000Y-51361928D01*
X94575518Y-51374188D01*
X94455820Y-51410498D01*
X94345506Y-51469463D01*
X94248815Y-51548815D01*
X94169463Y-51645506D01*
X94110498Y-51755820D01*
X94074952Y-51873000D01*
X90925048Y-51873000D01*
X90889502Y-51755820D01*
X90830537Y-51645506D01*
X90751185Y-51548815D01*
X90654494Y-51469463D01*
X90544180Y-51410498D01*
X90424482Y-51374188D01*
X90300000Y-51361928D01*
X90285750Y-51365000D01*
X90127000Y-51523750D01*
X90127000Y-51873000D01*
X89873000Y-51873000D01*
X89873000Y-51523750D01*
X89714250Y-51365000D01*
X89700000Y-51361928D01*
X89575518Y-51374188D01*
X89455820Y-51410498D01*
X89345506Y-51469463D01*
X89248815Y-51548815D01*
X89169463Y-51645506D01*
X89110498Y-51755820D01*
X89074952Y-51873000D01*
X85925048Y-51873000D01*
X85889502Y-51755820D01*
X85830537Y-51645506D01*
X85751185Y-51548815D01*
X85654494Y-51469463D01*
X85544180Y-51410498D01*
X85424482Y-51374188D01*
X85300000Y-51361928D01*
X85285750Y-51365000D01*
X85127000Y-51523750D01*
X85127000Y-51873000D01*
X84873000Y-51873000D01*
X84873000Y-51523750D01*
X84714250Y-51365000D01*
X84700000Y-51361928D01*
X84575518Y-51374188D01*
X84455820Y-51410498D01*
X84345506Y-51469463D01*
X84248815Y-51548815D01*
X84169463Y-51645506D01*
X84110498Y-51755820D01*
X84074952Y-51873000D01*
X80925048Y-51873000D01*
X80889502Y-51755820D01*
X80830537Y-51645506D01*
X80751185Y-51548815D01*
X80654494Y-51469463D01*
X80544180Y-51410498D01*
X80424482Y-51374188D01*
X80300000Y-51361928D01*
X80285750Y-51365000D01*
X80127000Y-51523750D01*
X80127000Y-51873000D01*
X79873000Y-51873000D01*
X79873000Y-51523750D01*
X79714250Y-51365000D01*
X79700000Y-51361928D01*
X79575518Y-51374188D01*
X79455820Y-51410498D01*
X79345506Y-51469463D01*
X79248815Y-51548815D01*
X79169463Y-51645506D01*
X79110498Y-51755820D01*
X79074952Y-51873000D01*
X75925048Y-51873000D01*
X75889502Y-51755820D01*
X75876932Y-51732303D01*
X76194069Y-51818322D01*
X76554684Y-51843067D01*
X76913198Y-51796985D01*
X77255833Y-51681846D01*
X77478486Y-51562836D01*
X77598374Y-51277980D01*
X76500000Y-50179605D01*
X75401626Y-51277980D01*
X75444698Y-51380321D01*
X75424482Y-51374188D01*
X75300000Y-51361928D01*
X75285750Y-51365000D01*
X75127000Y-51523750D01*
X75127000Y-51873000D01*
X74873000Y-51873000D01*
X74873000Y-51523750D01*
X74714250Y-51365000D01*
X74700000Y-51361928D01*
X74575518Y-51374188D01*
X74455820Y-51410498D01*
X74345506Y-51469463D01*
X74248815Y-51548815D01*
X74169463Y-51645506D01*
X74110498Y-51755820D01*
X74074952Y-51873000D01*
X70925048Y-51873000D01*
X70889502Y-51755820D01*
X70830537Y-51645506D01*
X70751185Y-51548815D01*
X70654494Y-51469463D01*
X70544180Y-51410498D01*
X70424482Y-51374188D01*
X70300000Y-51361928D01*
X70285750Y-51365000D01*
X70127000Y-51523750D01*
X70127000Y-51873000D01*
X69873000Y-51873000D01*
X69873000Y-51523750D01*
X69714250Y-51365000D01*
X69700000Y-51361928D01*
X69575518Y-51374188D01*
X69455820Y-51410498D01*
X69345506Y-51469463D01*
X69248815Y-51548815D01*
X69169463Y-51645506D01*
X69110498Y-51755820D01*
X69074952Y-51873000D01*
X65925048Y-51873000D01*
X65889502Y-51755820D01*
X65830537Y-51645506D01*
X65751185Y-51548815D01*
X65654494Y-51469463D01*
X65544180Y-51410498D01*
X65424482Y-51374188D01*
X65300000Y-51361928D01*
X65285750Y-51365000D01*
X65127000Y-51523750D01*
X65127000Y-51873000D01*
X64873000Y-51873000D01*
X64873000Y-51523750D01*
X64714250Y-51365000D01*
X64700000Y-51361928D01*
X64575518Y-51374188D01*
X64455820Y-51410498D01*
X64345506Y-51469463D01*
X64248815Y-51548815D01*
X64169463Y-51645506D01*
X64110498Y-51755820D01*
X64074952Y-51873000D01*
X60925048Y-51873000D01*
X60889502Y-51755820D01*
X60830537Y-51645506D01*
X60751185Y-51548815D01*
X60654494Y-51469463D01*
X60544180Y-51410498D01*
X60424482Y-51374188D01*
X60300000Y-51361928D01*
X60285750Y-51365000D01*
X60127000Y-51523750D01*
X60127000Y-51873000D01*
X59873000Y-51873000D01*
X59873000Y-51523750D01*
X59714250Y-51365000D01*
X59700000Y-51361928D01*
X59575518Y-51374188D01*
X59455820Y-51410498D01*
X59345506Y-51469463D01*
X59248815Y-51548815D01*
X59169463Y-51645506D01*
X59110498Y-51755820D01*
X59074952Y-51873000D01*
X55925048Y-51873000D01*
X55889502Y-51755820D01*
X55830537Y-51645506D01*
X55828489Y-51643011D01*
X55978486Y-51562836D01*
X56098374Y-51277980D01*
X55000000Y-50179605D01*
X53901626Y-51277980D01*
X54021514Y-51562836D01*
X54174794Y-51639010D01*
X54169463Y-51645506D01*
X54110498Y-51755820D01*
X54074952Y-51873000D01*
X51127000Y-51873000D01*
X51127000Y-50054684D01*
X53156933Y-50054684D01*
X53203015Y-50413198D01*
X53318154Y-50755833D01*
X53437164Y-50978486D01*
X53722020Y-51098374D01*
X54820395Y-50000000D01*
X55179605Y-50000000D01*
X56277980Y-51098374D01*
X56562836Y-50978486D01*
X56723699Y-50654790D01*
X56818322Y-50305931D01*
X56835562Y-50054684D01*
X74656933Y-50054684D01*
X74703015Y-50413198D01*
X74818154Y-50755833D01*
X74937164Y-50978486D01*
X75222020Y-51098374D01*
X76320395Y-50000000D01*
X76679605Y-50000000D01*
X77777980Y-51098374D01*
X78062836Y-50978486D01*
X78223699Y-50654790D01*
X78318322Y-50305931D01*
X78335562Y-50054684D01*
X98156933Y-50054684D01*
X98203015Y-50413198D01*
X98318154Y-50755833D01*
X98437164Y-50978486D01*
X98722020Y-51098374D01*
X99820395Y-50000000D01*
X100179605Y-50000000D01*
X101277980Y-51098374D01*
X101562836Y-50978486D01*
X101723699Y-50654790D01*
X101818322Y-50305931D01*
X101835562Y-50054684D01*
X120656933Y-50054684D01*
X120703015Y-50413198D01*
X120818154Y-50755833D01*
X120937164Y-50978486D01*
X121222020Y-51098374D01*
X122320395Y-50000000D01*
X122679605Y-50000000D01*
X123777980Y-51098374D01*
X124062836Y-50978486D01*
X124223699Y-50654790D01*
X124318322Y-50305931D01*
X124335562Y-50054684D01*
X143156933Y-50054684D01*
X143203015Y-50413198D01*
X143318154Y-50755833D01*
X143437164Y-50978486D01*
X143722020Y-51098374D01*
X144820395Y-50000000D01*
X145179605Y-50000000D01*
X146277980Y-51098374D01*
X146562836Y-50978486D01*
X146723699Y-50654790D01*
X146818322Y-50305931D01*
X146843067Y-49945316D01*
X146796985Y-49586802D01*
X146681846Y-49244167D01*
X146562836Y-49021514D01*
X146277980Y-48901626D01*
X145179605Y-50000000D01*
X144820395Y-50000000D01*
X143722020Y-48901626D01*
X143437164Y-49021514D01*
X143276301Y-49345210D01*
X143181678Y-49694069D01*
X143156933Y-50054684D01*
X124335562Y-50054684D01*
X124343067Y-49945316D01*
X124296985Y-49586802D01*
X124181846Y-49244167D01*
X124062836Y-49021514D01*
X123777980Y-48901626D01*
X122679605Y-50000000D01*
X122320395Y-50000000D01*
X121222020Y-48901626D01*
X120937164Y-49021514D01*
X120776301Y-49345210D01*
X120681678Y-49694069D01*
X120656933Y-50054684D01*
X101835562Y-50054684D01*
X101843067Y-49945316D01*
X101796985Y-49586802D01*
X101681846Y-49244167D01*
X101562836Y-49021514D01*
X101277980Y-48901626D01*
X100179605Y-50000000D01*
X99820395Y-50000000D01*
X98722020Y-48901626D01*
X98437164Y-49021514D01*
X98276301Y-49345210D01*
X98181678Y-49694069D01*
X98156933Y-50054684D01*
X78335562Y-50054684D01*
X78343067Y-49945316D01*
X78296985Y-49586802D01*
X78181846Y-49244167D01*
X78062836Y-49021514D01*
X77777980Y-48901626D01*
X76679605Y-50000000D01*
X76320395Y-50000000D01*
X75222020Y-48901626D01*
X74937164Y-49021514D01*
X74776301Y-49345210D01*
X74681678Y-49694069D01*
X74656933Y-50054684D01*
X56835562Y-50054684D01*
X56843067Y-49945316D01*
X56796985Y-49586802D01*
X56681846Y-49244167D01*
X56562836Y-49021514D01*
X56277980Y-48901626D01*
X55179605Y-50000000D01*
X54820395Y-50000000D01*
X53722020Y-48901626D01*
X53437164Y-49021514D01*
X53276301Y-49345210D01*
X53181678Y-49694069D01*
X53156933Y-50054684D01*
X51127000Y-50054684D01*
X51127000Y-48722020D01*
X53901626Y-48722020D01*
X55000000Y-49820395D01*
X56098374Y-48722020D01*
X75401626Y-48722020D01*
X76500000Y-49820395D01*
X77598374Y-48722020D01*
X98901626Y-48722020D01*
X100000000Y-49820395D01*
X101098374Y-48722020D01*
X121401626Y-48722020D01*
X122500000Y-49820395D01*
X123598374Y-48722020D01*
X143901626Y-48722020D01*
X145000000Y-49820395D01*
X146098374Y-48722020D01*
X145978486Y-48437164D01*
X145654790Y-48276301D01*
X145305931Y-48181678D01*
X144945316Y-48156933D01*
X144586802Y-48203015D01*
X144244167Y-48318154D01*
X144021514Y-48437164D01*
X143901626Y-48722020D01*
X123598374Y-48722020D01*
X123478486Y-48437164D01*
X123154790Y-48276301D01*
X122805931Y-48181678D01*
X122445316Y-48156933D01*
X122086802Y-48203015D01*
X121744167Y-48318154D01*
X121521514Y-48437164D01*
X121401626Y-48722020D01*
X101098374Y-48722020D01*
X100978486Y-48437164D01*
X100654790Y-48276301D01*
X100305931Y-48181678D01*
X99945316Y-48156933D01*
X99586802Y-48203015D01*
X99244167Y-48318154D01*
X99021514Y-48437164D01*
X98901626Y-48722020D01*
X77598374Y-48722020D01*
X77478486Y-48437164D01*
X77154790Y-48276301D01*
X76805931Y-48181678D01*
X76445316Y-48156933D01*
X76086802Y-48203015D01*
X75744167Y-48318154D01*
X75521514Y-48437164D01*
X75401626Y-48722020D01*
X56098374Y-48722020D01*
X55978486Y-48437164D01*
X55654790Y-48276301D01*
X55305931Y-48181678D01*
X54945316Y-48156933D01*
X54586802Y-48203015D01*
X54244167Y-48318154D01*
X54021514Y-48437164D01*
X53901626Y-48722020D01*
X51127000Y-48722020D01*
X51127000Y-48127000D01*
X148873000Y-48127000D01*
X148873000Y-51873000D01*
G37*
X148873000Y-51873000D02*
X145925048Y-51873000D01*
X145889502Y-51755820D01*
X145830537Y-51645506D01*
X145828489Y-51643011D01*
X145978486Y-51562836D01*
X146098374Y-51277980D01*
X145000000Y-50179605D01*
X143901626Y-51277980D01*
X144021514Y-51562836D01*
X144174794Y-51639010D01*
X144169463Y-51645506D01*
X144110498Y-51755820D01*
X144074952Y-51873000D01*
X140925048Y-51873000D01*
X140889502Y-51755820D01*
X140830537Y-51645506D01*
X140751185Y-51548815D01*
X140654494Y-51469463D01*
X140544180Y-51410498D01*
X140424482Y-51374188D01*
X140300000Y-51361928D01*
X140285750Y-51365000D01*
X140127000Y-51523750D01*
X140127000Y-51873000D01*
X139873000Y-51873000D01*
X139873000Y-51523750D01*
X139714250Y-51365000D01*
X139700000Y-51361928D01*
X139575518Y-51374188D01*
X139455820Y-51410498D01*
X139345506Y-51469463D01*
X139248815Y-51548815D01*
X139169463Y-51645506D01*
X139110498Y-51755820D01*
X139074952Y-51873000D01*
X135925048Y-51873000D01*
X135889502Y-51755820D01*
X135830537Y-51645506D01*
X135751185Y-51548815D01*
X135654494Y-51469463D01*
X135544180Y-51410498D01*
X135424482Y-51374188D01*
X135300000Y-51361928D01*
X135285750Y-51365000D01*
X135127000Y-51523750D01*
X135127000Y-51873000D01*
X134873000Y-51873000D01*
X134873000Y-51523750D01*
X134714250Y-51365000D01*
X134700000Y-51361928D01*
X134575518Y-51374188D01*
X134455820Y-51410498D01*
X134345506Y-51469463D01*
X134248815Y-51548815D01*
X134169463Y-51645506D01*
X134110498Y-51755820D01*
X134074952Y-51873000D01*
X130925048Y-51873000D01*
X130889502Y-51755820D01*
X130830537Y-51645506D01*
X130751185Y-51548815D01*
X130654494Y-51469463D01*
X130544180Y-51410498D01*
X130424482Y-51374188D01*
X130300000Y-51361928D01*
X130285750Y-51365000D01*
X130127000Y-51523750D01*
X130127000Y-51873000D01*
X129873000Y-51873000D01*
X129873000Y-51523750D01*
X129714250Y-51365000D01*
X129700000Y-51361928D01*
X129575518Y-51374188D01*
X129455820Y-51410498D01*
X129345506Y-51469463D01*
X129248815Y-51548815D01*
X129169463Y-51645506D01*
X129110498Y-51755820D01*
X129074952Y-51873000D01*
X125925048Y-51873000D01*
X125889502Y-51755820D01*
X125830537Y-51645506D01*
X125751185Y-51548815D01*
X125654494Y-51469463D01*
X125544180Y-51410498D01*
X125424482Y-51374188D01*
X125300000Y-51361928D01*
X125285750Y-51365000D01*
X125127000Y-51523750D01*
X125127000Y-51873000D01*
X124873000Y-51873000D01*
X124873000Y-51523750D01*
X124714250Y-51365000D01*
X124700000Y-51361928D01*
X124575518Y-51374188D01*
X124455820Y-51410498D01*
X124345506Y-51469463D01*
X124248815Y-51548815D01*
X124169463Y-51645506D01*
X124110498Y-51755820D01*
X124074952Y-51873000D01*
X120925048Y-51873000D01*
X120889502Y-51755820D01*
X120830537Y-51645506D01*
X120751185Y-51548815D01*
X120654494Y-51469463D01*
X120544180Y-51410498D01*
X120424482Y-51374188D01*
X120300000Y-51361928D01*
X120285750Y-51365000D01*
X120127000Y-51523750D01*
X120127000Y-51873000D01*
X119873000Y-51873000D01*
X119873000Y-51523750D01*
X119714250Y-51365000D01*
X119700000Y-51361928D01*
X119575518Y-51374188D01*
X119455820Y-51410498D01*
X119345506Y-51469463D01*
X119248815Y-51548815D01*
X119169463Y-51645506D01*
X119110498Y-51755820D01*
X119074952Y-51873000D01*
X115925048Y-51873000D01*
X115889502Y-51755820D01*
X115830537Y-51645506D01*
X115751185Y-51548815D01*
X115654494Y-51469463D01*
X115544180Y-51410498D01*
X115424482Y-51374188D01*
X115300000Y-51361928D01*
X115285750Y-51365000D01*
X115127000Y-51523750D01*
X115127000Y-51873000D01*
X114873000Y-51873000D01*
X114873000Y-51523750D01*
X114714250Y-51365000D01*
X114700000Y-51361928D01*
X114575518Y-51374188D01*
X114455820Y-51410498D01*
X114345506Y-51469463D01*
X114248815Y-51548815D01*
X114169463Y-51645506D01*
X114110498Y-51755820D01*
X114074952Y-51873000D01*
X110925048Y-51873000D01*
X110889502Y-51755820D01*
X110830537Y-51645506D01*
X110751185Y-51548815D01*
X110654494Y-51469463D01*
X110544180Y-51410498D01*
X110424482Y-51374188D01*
X110300000Y-51361928D01*
X110285750Y-51365000D01*
X110127000Y-51523750D01*
X110127000Y-51873000D01*
X109873000Y-51873000D01*
X109873000Y-51523750D01*
X109714250Y-51365000D01*
X109700000Y-51361928D01*
X109575518Y-51374188D01*
X109455820Y-51410498D01*
X109345506Y-51469463D01*
X109248815Y-51548815D01*
X109169463Y-51645506D01*
X109110498Y-51755820D01*
X109074952Y-51873000D01*
X105925048Y-51873000D01*
X105889502Y-51755820D01*
X105830537Y-51645506D01*
X105751185Y-51548815D01*
X105654494Y-51469463D01*
X105544180Y-51410498D01*
X105424482Y-51374188D01*
X105300000Y-51361928D01*
X105285750Y-51365000D01*
X105127000Y-51523750D01*
X105127000Y-51873000D01*
X104873000Y-51873000D01*
X104873000Y-51523750D01*
X104714250Y-51365000D01*
X104700000Y-51361928D01*
X104575518Y-51374188D01*
X104455820Y-51410498D01*
X104345506Y-51469463D01*
X104248815Y-51548815D01*
X104169463Y-51645506D01*
X104110498Y-51755820D01*
X104074952Y-51873000D01*
X100925048Y-51873000D01*
X100889502Y-51755820D01*
X100830537Y-51645506D01*
X100828489Y-51643011D01*
X100978486Y-51562836D01*
X101098374Y-51277980D01*
X121401626Y-51277980D01*
X121521514Y-51562836D01*
X121845210Y-51723699D01*
X122194069Y-51818322D01*
X122554684Y-51843067D01*
X122913198Y-51796985D01*
X123255833Y-51681846D01*
X123478486Y-51562836D01*
X123598374Y-51277980D01*
X122500000Y-50179605D01*
X121401626Y-51277980D01*
X101098374Y-51277980D01*
X100000000Y-50179605D01*
X98901626Y-51277980D01*
X99021514Y-51562836D01*
X99174794Y-51639010D01*
X99169463Y-51645506D01*
X99110498Y-51755820D01*
X99074952Y-51873000D01*
X95925048Y-51873000D01*
X95889502Y-51755820D01*
X95830537Y-51645506D01*
X95751185Y-51548815D01*
X95654494Y-51469463D01*
X95544180Y-51410498D01*
X95424482Y-51374188D01*
X95300000Y-51361928D01*
X95285750Y-51365000D01*
X95127000Y-51523750D01*
X95127000Y-51873000D01*
X94873000Y-51873000D01*
X94873000Y-51523750D01*
X94714250Y-51365000D01*
X94700000Y-51361928D01*
X94575518Y-51374188D01*
X94455820Y-51410498D01*
X94345506Y-51469463D01*
X94248815Y-51548815D01*
X94169463Y-51645506D01*
X94110498Y-51755820D01*
X94074952Y-51873000D01*
X90925048Y-51873000D01*
X90889502Y-51755820D01*
X90830537Y-51645506D01*
X90751185Y-51548815D01*
X90654494Y-51469463D01*
X90544180Y-51410498D01*
X90424482Y-51374188D01*
X90300000Y-51361928D01*
X90285750Y-51365000D01*
X90127000Y-51523750D01*
X90127000Y-51873000D01*
X89873000Y-51873000D01*
X89873000Y-51523750D01*
X89714250Y-51365000D01*
X89700000Y-51361928D01*
X89575518Y-51374188D01*
X89455820Y-51410498D01*
X89345506Y-51469463D01*
X89248815Y-51548815D01*
X89169463Y-51645506D01*
X89110498Y-51755820D01*
X89074952Y-51873000D01*
X85925048Y-51873000D01*
X85889502Y-51755820D01*
X85830537Y-51645506D01*
X85751185Y-51548815D01*
X85654494Y-51469463D01*
X85544180Y-51410498D01*
X85424482Y-51374188D01*
X85300000Y-51361928D01*
X85285750Y-51365000D01*
X85127000Y-51523750D01*
X85127000Y-51873000D01*
X84873000Y-51873000D01*
X84873000Y-51523750D01*
X84714250Y-51365000D01*
X84700000Y-51361928D01*
X84575518Y-51374188D01*
X84455820Y-51410498D01*
X84345506Y-51469463D01*
X84248815Y-51548815D01*
X84169463Y-51645506D01*
X84110498Y-51755820D01*
X84074952Y-51873000D01*
X80925048Y-51873000D01*
X80889502Y-51755820D01*
X80830537Y-51645506D01*
X80751185Y-51548815D01*
X80654494Y-51469463D01*
X80544180Y-51410498D01*
X80424482Y-51374188D01*
X80300000Y-51361928D01*
X80285750Y-51365000D01*
X80127000Y-51523750D01*
X80127000Y-51873000D01*
X79873000Y-51873000D01*
X79873000Y-51523750D01*
X79714250Y-51365000D01*
X79700000Y-51361928D01*
X79575518Y-51374188D01*
X79455820Y-51410498D01*
X79345506Y-51469463D01*
X79248815Y-51548815D01*
X79169463Y-51645506D01*
X79110498Y-51755820D01*
X79074952Y-51873000D01*
X75925048Y-51873000D01*
X75889502Y-51755820D01*
X75876932Y-51732303D01*
X76194069Y-51818322D01*
X76554684Y-51843067D01*
X76913198Y-51796985D01*
X77255833Y-51681846D01*
X77478486Y-51562836D01*
X77598374Y-51277980D01*
X76500000Y-50179605D01*
X75401626Y-51277980D01*
X75444698Y-51380321D01*
X75424482Y-51374188D01*
X75300000Y-51361928D01*
X75285750Y-51365000D01*
X75127000Y-51523750D01*
X75127000Y-51873000D01*
X74873000Y-51873000D01*
X74873000Y-51523750D01*
X74714250Y-51365000D01*
X74700000Y-51361928D01*
X74575518Y-51374188D01*
X74455820Y-51410498D01*
X74345506Y-51469463D01*
X74248815Y-51548815D01*
X74169463Y-51645506D01*
X74110498Y-51755820D01*
X74074952Y-51873000D01*
X70925048Y-51873000D01*
X70889502Y-51755820D01*
X70830537Y-51645506D01*
X70751185Y-51548815D01*
X70654494Y-51469463D01*
X70544180Y-51410498D01*
X70424482Y-51374188D01*
X70300000Y-51361928D01*
X70285750Y-51365000D01*
X70127000Y-51523750D01*
X70127000Y-51873000D01*
X69873000Y-51873000D01*
X69873000Y-51523750D01*
X69714250Y-51365000D01*
X69700000Y-51361928D01*
X69575518Y-51374188D01*
X69455820Y-51410498D01*
X69345506Y-51469463D01*
X69248815Y-51548815D01*
X69169463Y-51645506D01*
X69110498Y-51755820D01*
X69074952Y-51873000D01*
X65925048Y-51873000D01*
X65889502Y-51755820D01*
X65830537Y-51645506D01*
X65751185Y-51548815D01*
X65654494Y-51469463D01*
X65544180Y-51410498D01*
X65424482Y-51374188D01*
X65300000Y-51361928D01*
X65285750Y-51365000D01*
X65127000Y-51523750D01*
X65127000Y-51873000D01*
X64873000Y-51873000D01*
X64873000Y-51523750D01*
X64714250Y-51365000D01*
X64700000Y-51361928D01*
X64575518Y-51374188D01*
X64455820Y-51410498D01*
X64345506Y-51469463D01*
X64248815Y-51548815D01*
X64169463Y-51645506D01*
X64110498Y-51755820D01*
X64074952Y-51873000D01*
X60925048Y-51873000D01*
X60889502Y-51755820D01*
X60830537Y-51645506D01*
X60751185Y-51548815D01*
X60654494Y-51469463D01*
X60544180Y-51410498D01*
X60424482Y-51374188D01*
X60300000Y-51361928D01*
X60285750Y-51365000D01*
X60127000Y-51523750D01*
X60127000Y-51873000D01*
X59873000Y-51873000D01*
X59873000Y-51523750D01*
X59714250Y-51365000D01*
X59700000Y-51361928D01*
X59575518Y-51374188D01*
X59455820Y-51410498D01*
X59345506Y-51469463D01*
X59248815Y-51548815D01*
X59169463Y-51645506D01*
X59110498Y-51755820D01*
X59074952Y-51873000D01*
X55925048Y-51873000D01*
X55889502Y-51755820D01*
X55830537Y-51645506D01*
X55828489Y-51643011D01*
X55978486Y-51562836D01*
X56098374Y-51277980D01*
X55000000Y-50179605D01*
X53901626Y-51277980D01*
X54021514Y-51562836D01*
X54174794Y-51639010D01*
X54169463Y-51645506D01*
X54110498Y-51755820D01*
X54074952Y-51873000D01*
X51127000Y-51873000D01*
X51127000Y-50054684D01*
X53156933Y-50054684D01*
X53203015Y-50413198D01*
X53318154Y-50755833D01*
X53437164Y-50978486D01*
X53722020Y-51098374D01*
X54820395Y-50000000D01*
X55179605Y-50000000D01*
X56277980Y-51098374D01*
X56562836Y-50978486D01*
X56723699Y-50654790D01*
X56818322Y-50305931D01*
X56835562Y-50054684D01*
X74656933Y-50054684D01*
X74703015Y-50413198D01*
X74818154Y-50755833D01*
X74937164Y-50978486D01*
X75222020Y-51098374D01*
X76320395Y-50000000D01*
X76679605Y-50000000D01*
X77777980Y-51098374D01*
X78062836Y-50978486D01*
X78223699Y-50654790D01*
X78318322Y-50305931D01*
X78335562Y-50054684D01*
X98156933Y-50054684D01*
X98203015Y-50413198D01*
X98318154Y-50755833D01*
X98437164Y-50978486D01*
X98722020Y-51098374D01*
X99820395Y-50000000D01*
X100179605Y-50000000D01*
X101277980Y-51098374D01*
X101562836Y-50978486D01*
X101723699Y-50654790D01*
X101818322Y-50305931D01*
X101835562Y-50054684D01*
X120656933Y-50054684D01*
X120703015Y-50413198D01*
X120818154Y-50755833D01*
X120937164Y-50978486D01*
X121222020Y-51098374D01*
X122320395Y-50000000D01*
X122679605Y-50000000D01*
X123777980Y-51098374D01*
X124062836Y-50978486D01*
X124223699Y-50654790D01*
X124318322Y-50305931D01*
X124335562Y-50054684D01*
X143156933Y-50054684D01*
X143203015Y-50413198D01*
X143318154Y-50755833D01*
X143437164Y-50978486D01*
X143722020Y-51098374D01*
X144820395Y-50000000D01*
X145179605Y-50000000D01*
X146277980Y-51098374D01*
X146562836Y-50978486D01*
X146723699Y-50654790D01*
X146818322Y-50305931D01*
X146843067Y-49945316D01*
X146796985Y-49586802D01*
X146681846Y-49244167D01*
X146562836Y-49021514D01*
X146277980Y-48901626D01*
X145179605Y-50000000D01*
X144820395Y-50000000D01*
X143722020Y-48901626D01*
X143437164Y-49021514D01*
X143276301Y-49345210D01*
X143181678Y-49694069D01*
X143156933Y-50054684D01*
X124335562Y-50054684D01*
X124343067Y-49945316D01*
X124296985Y-49586802D01*
X124181846Y-49244167D01*
X124062836Y-49021514D01*
X123777980Y-48901626D01*
X122679605Y-50000000D01*
X122320395Y-50000000D01*
X121222020Y-48901626D01*
X120937164Y-49021514D01*
X120776301Y-49345210D01*
X120681678Y-49694069D01*
X120656933Y-50054684D01*
X101835562Y-50054684D01*
X101843067Y-49945316D01*
X101796985Y-49586802D01*
X101681846Y-49244167D01*
X101562836Y-49021514D01*
X101277980Y-48901626D01*
X100179605Y-50000000D01*
X99820395Y-50000000D01*
X98722020Y-48901626D01*
X98437164Y-49021514D01*
X98276301Y-49345210D01*
X98181678Y-49694069D01*
X98156933Y-50054684D01*
X78335562Y-50054684D01*
X78343067Y-49945316D01*
X78296985Y-49586802D01*
X78181846Y-49244167D01*
X78062836Y-49021514D01*
X77777980Y-48901626D01*
X76679605Y-50000000D01*
X76320395Y-50000000D01*
X75222020Y-48901626D01*
X74937164Y-49021514D01*
X74776301Y-49345210D01*
X74681678Y-49694069D01*
X74656933Y-50054684D01*
X56835562Y-50054684D01*
X56843067Y-49945316D01*
X56796985Y-49586802D01*
X56681846Y-49244167D01*
X56562836Y-49021514D01*
X56277980Y-48901626D01*
X55179605Y-50000000D01*
X54820395Y-50000000D01*
X53722020Y-48901626D01*
X53437164Y-49021514D01*
X53276301Y-49345210D01*
X53181678Y-49694069D01*
X53156933Y-50054684D01*
X51127000Y-50054684D01*
X51127000Y-48722020D01*
X53901626Y-48722020D01*
X55000000Y-49820395D01*
X56098374Y-48722020D01*
X75401626Y-48722020D01*
X76500000Y-49820395D01*
X77598374Y-48722020D01*
X98901626Y-48722020D01*
X100000000Y-49820395D01*
X101098374Y-48722020D01*
X121401626Y-48722020D01*
X122500000Y-49820395D01*
X123598374Y-48722020D01*
X143901626Y-48722020D01*
X145000000Y-49820395D01*
X146098374Y-48722020D01*
X145978486Y-48437164D01*
X145654790Y-48276301D01*
X145305931Y-48181678D01*
X144945316Y-48156933D01*
X144586802Y-48203015D01*
X144244167Y-48318154D01*
X144021514Y-48437164D01*
X143901626Y-48722020D01*
X123598374Y-48722020D01*
X123478486Y-48437164D01*
X123154790Y-48276301D01*
X122805931Y-48181678D01*
X122445316Y-48156933D01*
X122086802Y-48203015D01*
X121744167Y-48318154D01*
X121521514Y-48437164D01*
X121401626Y-48722020D01*
X101098374Y-48722020D01*
X100978486Y-48437164D01*
X100654790Y-48276301D01*
X100305931Y-48181678D01*
X99945316Y-48156933D01*
X99586802Y-48203015D01*
X99244167Y-48318154D01*
X99021514Y-48437164D01*
X98901626Y-48722020D01*
X77598374Y-48722020D01*
X77478486Y-48437164D01*
X77154790Y-48276301D01*
X76805931Y-48181678D01*
X76445316Y-48156933D01*
X76086802Y-48203015D01*
X75744167Y-48318154D01*
X75521514Y-48437164D01*
X75401626Y-48722020D01*
X56098374Y-48722020D01*
X55978486Y-48437164D01*
X55654790Y-48276301D01*
X55305931Y-48181678D01*
X54945316Y-48156933D01*
X54586802Y-48203015D01*
X54244167Y-48318154D01*
X54021514Y-48437164D01*
X53901626Y-48722020D01*
X51127000Y-48722020D01*
X51127000Y-48127000D01*
X148873000Y-48127000D01*
X148873000Y-51873000D01*
G36*
X54110498Y-138244180D02*
G01*
X54169463Y-138354494D01*
X54171511Y-138356989D01*
X54021514Y-138437164D01*
X53901626Y-138722020D01*
X55000000Y-139820395D01*
X56098374Y-138722020D01*
X55978486Y-138437164D01*
X55825206Y-138360990D01*
X55830537Y-138354494D01*
X55889502Y-138244180D01*
X55925048Y-138127000D01*
X59074952Y-138127000D01*
X59110498Y-138244180D01*
X59169463Y-138354494D01*
X59248815Y-138451185D01*
X59345506Y-138530537D01*
X59455820Y-138589502D01*
X59575518Y-138625812D01*
X59700000Y-138638072D01*
X59714250Y-138635000D01*
X59873000Y-138476250D01*
X59873000Y-138127000D01*
X60127000Y-138127000D01*
X60127000Y-138476250D01*
X60285750Y-138635000D01*
X60300000Y-138638072D01*
X60424482Y-138625812D01*
X60544180Y-138589502D01*
X60654494Y-138530537D01*
X60751185Y-138451185D01*
X60830537Y-138354494D01*
X60889502Y-138244180D01*
X60925048Y-138127000D01*
X64074952Y-138127000D01*
X64110498Y-138244180D01*
X64169463Y-138354494D01*
X64248815Y-138451185D01*
X64345506Y-138530537D01*
X64455820Y-138589502D01*
X64575518Y-138625812D01*
X64700000Y-138638072D01*
X64714250Y-138635000D01*
X64873000Y-138476250D01*
X64873000Y-138127000D01*
X65127000Y-138127000D01*
X65127000Y-138476250D01*
X65285750Y-138635000D01*
X65300000Y-138638072D01*
X65424482Y-138625812D01*
X65544180Y-138589502D01*
X65654494Y-138530537D01*
X65751185Y-138451185D01*
X65830537Y-138354494D01*
X65889502Y-138244180D01*
X65925048Y-138127000D01*
X69074952Y-138127000D01*
X69110498Y-138244180D01*
X69169463Y-138354494D01*
X69248815Y-138451185D01*
X69345506Y-138530537D01*
X69455820Y-138589502D01*
X69575518Y-138625812D01*
X69700000Y-138638072D01*
X69714250Y-138635000D01*
X69873000Y-138476250D01*
X69873000Y-138127000D01*
X70127000Y-138127000D01*
X70127000Y-138476250D01*
X70285750Y-138635000D01*
X70300000Y-138638072D01*
X70424482Y-138625812D01*
X70544180Y-138589502D01*
X70654494Y-138530537D01*
X70751185Y-138451185D01*
X70830537Y-138354494D01*
X70889502Y-138244180D01*
X70925048Y-138127000D01*
X74074952Y-138127000D01*
X74110498Y-138244180D01*
X74169463Y-138354494D01*
X74248815Y-138451185D01*
X74345506Y-138530537D01*
X74455820Y-138589502D01*
X74575518Y-138625812D01*
X74700000Y-138638072D01*
X74714250Y-138635000D01*
X74873000Y-138476250D01*
X74873000Y-138127000D01*
X75127000Y-138127000D01*
X75127000Y-138476250D01*
X75285750Y-138635000D01*
X75300000Y-138638072D01*
X75424482Y-138625812D01*
X75444698Y-138619679D01*
X75401626Y-138722020D01*
X76500000Y-139820395D01*
X77598374Y-138722020D01*
X77478486Y-138437164D01*
X77154790Y-138276301D01*
X76805931Y-138181678D01*
X76445316Y-138156933D01*
X76086802Y-138203015D01*
X75873125Y-138274819D01*
X75889502Y-138244180D01*
X75925048Y-138127000D01*
X79074952Y-138127000D01*
X79110498Y-138244180D01*
X79169463Y-138354494D01*
X79248815Y-138451185D01*
X79345506Y-138530537D01*
X79455820Y-138589502D01*
X79575518Y-138625812D01*
X79700000Y-138638072D01*
X79714250Y-138635000D01*
X79873000Y-138476250D01*
X79873000Y-138127000D01*
X80127000Y-138127000D01*
X80127000Y-138476250D01*
X80285750Y-138635000D01*
X80300000Y-138638072D01*
X80424482Y-138625812D01*
X80544180Y-138589502D01*
X80654494Y-138530537D01*
X80751185Y-138451185D01*
X80830537Y-138354494D01*
X80889502Y-138244180D01*
X80925048Y-138127000D01*
X84074952Y-138127000D01*
X84110498Y-138244180D01*
X84169463Y-138354494D01*
X84248815Y-138451185D01*
X84345506Y-138530537D01*
X84455820Y-138589502D01*
X84575518Y-138625812D01*
X84700000Y-138638072D01*
X84714250Y-138635000D01*
X84873000Y-138476250D01*
X84873000Y-138127000D01*
X85127000Y-138127000D01*
X85127000Y-138476250D01*
X85285750Y-138635000D01*
X85300000Y-138638072D01*
X85424482Y-138625812D01*
X85544180Y-138589502D01*
X85654494Y-138530537D01*
X85751185Y-138451185D01*
X85830537Y-138354494D01*
X85889502Y-138244180D01*
X85925048Y-138127000D01*
X89074952Y-138127000D01*
X89110498Y-138244180D01*
X89169463Y-138354494D01*
X89248815Y-138451185D01*
X89345506Y-138530537D01*
X89455820Y-138589502D01*
X89575518Y-138625812D01*
X89700000Y-138638072D01*
X89714250Y-138635000D01*
X89873000Y-138476250D01*
X89873000Y-138127000D01*
X90127000Y-138127000D01*
X90127000Y-138476250D01*
X90285750Y-138635000D01*
X90300000Y-138638072D01*
X90424482Y-138625812D01*
X90544180Y-138589502D01*
X90654494Y-138530537D01*
X90751185Y-138451185D01*
X90830537Y-138354494D01*
X90889502Y-138244180D01*
X90925048Y-138127000D01*
X94074952Y-138127000D01*
X94110498Y-138244180D01*
X94169463Y-138354494D01*
X94248815Y-138451185D01*
X94345506Y-138530537D01*
X94455820Y-138589502D01*
X94575518Y-138625812D01*
X94700000Y-138638072D01*
X94714250Y-138635000D01*
X94873000Y-138476250D01*
X94873000Y-138127000D01*
X95127000Y-138127000D01*
X95127000Y-138476250D01*
X95285750Y-138635000D01*
X95300000Y-138638072D01*
X95424482Y-138625812D01*
X95544180Y-138589502D01*
X95654494Y-138530537D01*
X95751185Y-138451185D01*
X95830537Y-138354494D01*
X95889502Y-138244180D01*
X95925048Y-138127000D01*
X99074952Y-138127000D01*
X99110498Y-138244180D01*
X99169463Y-138354494D01*
X99171511Y-138356989D01*
X99021514Y-138437164D01*
X98901626Y-138722020D01*
X100000000Y-139820395D01*
X101098374Y-138722020D01*
X121401626Y-138722020D01*
X122500000Y-139820395D01*
X123598374Y-138722020D01*
X123478486Y-138437164D01*
X123154790Y-138276301D01*
X122805931Y-138181678D01*
X122445316Y-138156933D01*
X122086802Y-138203015D01*
X121744167Y-138318154D01*
X121521514Y-138437164D01*
X121401626Y-138722020D01*
X101098374Y-138722020D01*
X100978486Y-138437164D01*
X100825206Y-138360990D01*
X100830537Y-138354494D01*
X100889502Y-138244180D01*
X100925048Y-138127000D01*
X104074952Y-138127000D01*
X104110498Y-138244180D01*
X104169463Y-138354494D01*
X104248815Y-138451185D01*
X104345506Y-138530537D01*
X104455820Y-138589502D01*
X104575518Y-138625812D01*
X104700000Y-138638072D01*
X104714250Y-138635000D01*
X104873000Y-138476250D01*
X104873000Y-138127000D01*
X105127000Y-138127000D01*
X105127000Y-138476250D01*
X105285750Y-138635000D01*
X105300000Y-138638072D01*
X105424482Y-138625812D01*
X105544180Y-138589502D01*
X105654494Y-138530537D01*
X105751185Y-138451185D01*
X105830537Y-138354494D01*
X105889502Y-138244180D01*
X105925048Y-138127000D01*
X109074952Y-138127000D01*
X109110498Y-138244180D01*
X109169463Y-138354494D01*
X109248815Y-138451185D01*
X109345506Y-138530537D01*
X109455820Y-138589502D01*
X109575518Y-138625812D01*
X109700000Y-138638072D01*
X109714250Y-138635000D01*
X109873000Y-138476250D01*
X109873000Y-138127000D01*
X110127000Y-138127000D01*
X110127000Y-138476250D01*
X110285750Y-138635000D01*
X110300000Y-138638072D01*
X110424482Y-138625812D01*
X110544180Y-138589502D01*
X110654494Y-138530537D01*
X110751185Y-138451185D01*
X110830537Y-138354494D01*
X110889502Y-138244180D01*
X110925048Y-138127000D01*
X114074952Y-138127000D01*
X114110498Y-138244180D01*
X114169463Y-138354494D01*
X114248815Y-138451185D01*
X114345506Y-138530537D01*
X114455820Y-138589502D01*
X114575518Y-138625812D01*
X114700000Y-138638072D01*
X114714250Y-138635000D01*
X114873000Y-138476250D01*
X114873000Y-138127000D01*
X115127000Y-138127000D01*
X115127000Y-138476250D01*
X115285750Y-138635000D01*
X115300000Y-138638072D01*
X115424482Y-138625812D01*
X115544180Y-138589502D01*
X115654494Y-138530537D01*
X115751185Y-138451185D01*
X115830537Y-138354494D01*
X115889502Y-138244180D01*
X115925048Y-138127000D01*
X119074952Y-138127000D01*
X119110498Y-138244180D01*
X119169463Y-138354494D01*
X119248815Y-138451185D01*
X119345506Y-138530537D01*
X119455820Y-138589502D01*
X119575518Y-138625812D01*
X119700000Y-138638072D01*
X119714250Y-138635000D01*
X119873000Y-138476250D01*
X119873000Y-138127000D01*
X120127000Y-138127000D01*
X120127000Y-138476250D01*
X120285750Y-138635000D01*
X120300000Y-138638072D01*
X120424482Y-138625812D01*
X120544180Y-138589502D01*
X120654494Y-138530537D01*
X120751185Y-138451185D01*
X120830537Y-138354494D01*
X120889502Y-138244180D01*
X120925048Y-138127000D01*
X124074952Y-138127000D01*
X124110498Y-138244180D01*
X124169463Y-138354494D01*
X124248815Y-138451185D01*
X124345506Y-138530537D01*
X124455820Y-138589502D01*
X124575518Y-138625812D01*
X124700000Y-138638072D01*
X124714250Y-138635000D01*
X124873000Y-138476250D01*
X124873000Y-138127000D01*
X125127000Y-138127000D01*
X125127000Y-138476250D01*
X125285750Y-138635000D01*
X125300000Y-138638072D01*
X125424482Y-138625812D01*
X125544180Y-138589502D01*
X125654494Y-138530537D01*
X125751185Y-138451185D01*
X125830537Y-138354494D01*
X125889502Y-138244180D01*
X125925048Y-138127000D01*
X129074952Y-138127000D01*
X129110498Y-138244180D01*
X129169463Y-138354494D01*
X129248815Y-138451185D01*
X129345506Y-138530537D01*
X129455820Y-138589502D01*
X129575518Y-138625812D01*
X129700000Y-138638072D01*
X129714250Y-138635000D01*
X129873000Y-138476250D01*
X129873000Y-138127000D01*
X130127000Y-138127000D01*
X130127000Y-138476250D01*
X130285750Y-138635000D01*
X130300000Y-138638072D01*
X130424482Y-138625812D01*
X130544180Y-138589502D01*
X130654494Y-138530537D01*
X130751185Y-138451185D01*
X130830537Y-138354494D01*
X130889502Y-138244180D01*
X130925048Y-138127000D01*
X134074952Y-138127000D01*
X134110498Y-138244180D01*
X134169463Y-138354494D01*
X134248815Y-138451185D01*
X134345506Y-138530537D01*
X134455820Y-138589502D01*
X134575518Y-138625812D01*
X134700000Y-138638072D01*
X134714250Y-138635000D01*
X134873000Y-138476250D01*
X134873000Y-138127000D01*
X135127000Y-138127000D01*
X135127000Y-138476250D01*
X135285750Y-138635000D01*
X135300000Y-138638072D01*
X135424482Y-138625812D01*
X135544180Y-138589502D01*
X135654494Y-138530537D01*
X135751185Y-138451185D01*
X135830537Y-138354494D01*
X135889502Y-138244180D01*
X135925048Y-138127000D01*
X139074952Y-138127000D01*
X139110498Y-138244180D01*
X139169463Y-138354494D01*
X139248815Y-138451185D01*
X139345506Y-138530537D01*
X139455820Y-138589502D01*
X139575518Y-138625812D01*
X139700000Y-138638072D01*
X139714250Y-138635000D01*
X139873000Y-138476250D01*
X139873000Y-138127000D01*
X140127000Y-138127000D01*
X140127000Y-138476250D01*
X140285750Y-138635000D01*
X140300000Y-138638072D01*
X140424482Y-138625812D01*
X140544180Y-138589502D01*
X140654494Y-138530537D01*
X140751185Y-138451185D01*
X140830537Y-138354494D01*
X140889502Y-138244180D01*
X140925048Y-138127000D01*
X144074952Y-138127000D01*
X144110498Y-138244180D01*
X144169463Y-138354494D01*
X144171511Y-138356989D01*
X144021514Y-138437164D01*
X143901626Y-138722020D01*
X145000000Y-139820395D01*
X146098374Y-138722020D01*
X145978486Y-138437164D01*
X145825206Y-138360990D01*
X145830537Y-138354494D01*
X145889502Y-138244180D01*
X145925048Y-138127000D01*
X148873000Y-138127000D01*
X148873000Y-141873000D01*
X52127000Y-141873000D01*
X52127000Y-141277980D01*
X53901626Y-141277980D01*
X54021514Y-141562836D01*
X54345210Y-141723699D01*
X54694069Y-141818322D01*
X55054684Y-141843067D01*
X55413198Y-141796985D01*
X55755833Y-141681846D01*
X55978486Y-141562836D01*
X56098374Y-141277980D01*
X75401626Y-141277980D01*
X75521514Y-141562836D01*
X75845210Y-141723699D01*
X76194069Y-141818322D01*
X76554684Y-141843067D01*
X76913198Y-141796985D01*
X77255833Y-141681846D01*
X77478486Y-141562836D01*
X77598374Y-141277980D01*
X98901626Y-141277980D01*
X99021514Y-141562836D01*
X99345210Y-141723699D01*
X99694069Y-141818322D01*
X100054684Y-141843067D01*
X100413198Y-141796985D01*
X100755833Y-141681846D01*
X100978486Y-141562836D01*
X101098374Y-141277980D01*
X121401626Y-141277980D01*
X121521514Y-141562836D01*
X121845210Y-141723699D01*
X122194069Y-141818322D01*
X122554684Y-141843067D01*
X122913198Y-141796985D01*
X123255833Y-141681846D01*
X123478486Y-141562836D01*
X123598374Y-141277980D01*
X143901626Y-141277980D01*
X144021514Y-141562836D01*
X144345210Y-141723699D01*
X144694069Y-141818322D01*
X145054684Y-141843067D01*
X145413198Y-141796985D01*
X145755833Y-141681846D01*
X145978486Y-141562836D01*
X146098374Y-141277980D01*
X145000000Y-140179605D01*
X143901626Y-141277980D01*
X123598374Y-141277980D01*
X122500000Y-140179605D01*
X121401626Y-141277980D01*
X101098374Y-141277980D01*
X100000000Y-140179605D01*
X98901626Y-141277980D01*
X77598374Y-141277980D01*
X76500000Y-140179605D01*
X75401626Y-141277980D01*
X56098374Y-141277980D01*
X55000000Y-140179605D01*
X53901626Y-141277980D01*
X52127000Y-141277980D01*
X52127000Y-140054684D01*
X53156933Y-140054684D01*
X53203015Y-140413198D01*
X53318154Y-140755833D01*
X53437164Y-140978486D01*
X53722020Y-141098374D01*
X54820395Y-140000000D01*
X55179605Y-140000000D01*
X56277980Y-141098374D01*
X56562836Y-140978486D01*
X56723699Y-140654790D01*
X56818322Y-140305931D01*
X56835562Y-140054684D01*
X74656933Y-140054684D01*
X74703015Y-140413198D01*
X74818154Y-140755833D01*
X74937164Y-140978486D01*
X75222020Y-141098374D01*
X76320395Y-140000000D01*
X76679605Y-140000000D01*
X77777980Y-141098374D01*
X78062836Y-140978486D01*
X78223699Y-140654790D01*
X78318322Y-140305931D01*
X78335562Y-140054684D01*
X98156933Y-140054684D01*
X98203015Y-140413198D01*
X98318154Y-140755833D01*
X98437164Y-140978486D01*
X98722020Y-141098374D01*
X99820395Y-140000000D01*
X100179605Y-140000000D01*
X101277980Y-141098374D01*
X101562836Y-140978486D01*
X101723699Y-140654790D01*
X101818322Y-140305931D01*
X101835562Y-140054684D01*
X120656933Y-140054684D01*
X120703015Y-140413198D01*
X120818154Y-140755833D01*
X120937164Y-140978486D01*
X121222020Y-141098374D01*
X122320395Y-140000000D01*
X122679605Y-140000000D01*
X123777980Y-141098374D01*
X124062836Y-140978486D01*
X124223699Y-140654790D01*
X124318322Y-140305931D01*
X124335562Y-140054684D01*
X143156933Y-140054684D01*
X143203015Y-140413198D01*
X143318154Y-140755833D01*
X143437164Y-140978486D01*
X143722020Y-141098374D01*
X144820395Y-140000000D01*
X145179605Y-140000000D01*
X146277980Y-141098374D01*
X146562836Y-140978486D01*
X146723699Y-140654790D01*
X146818322Y-140305931D01*
X146843067Y-139945316D01*
X146796985Y-139586802D01*
X146681846Y-139244167D01*
X146562836Y-139021514D01*
X146277980Y-138901626D01*
X145179605Y-140000000D01*
X144820395Y-140000000D01*
X143722020Y-138901626D01*
X143437164Y-139021514D01*
X143276301Y-139345210D01*
X143181678Y-139694069D01*
X143156933Y-140054684D01*
X124335562Y-140054684D01*
X124343067Y-139945316D01*
X124296985Y-139586802D01*
X124181846Y-139244167D01*
X124062836Y-139021514D01*
X123777980Y-138901626D01*
X122679605Y-140000000D01*
X122320395Y-140000000D01*
X121222020Y-138901626D01*
X120937164Y-139021514D01*
X120776301Y-139345210D01*
X120681678Y-139694069D01*
X120656933Y-140054684D01*
X101835562Y-140054684D01*
X101843067Y-139945316D01*
X101796985Y-139586802D01*
X101681846Y-139244167D01*
X101562836Y-139021514D01*
X101277980Y-138901626D01*
X100179605Y-140000000D01*
X99820395Y-140000000D01*
X98722020Y-138901626D01*
X98437164Y-139021514D01*
X98276301Y-139345210D01*
X98181678Y-139694069D01*
X98156933Y-140054684D01*
X78335562Y-140054684D01*
X78343067Y-139945316D01*
X78296985Y-139586802D01*
X78181846Y-139244167D01*
X78062836Y-139021514D01*
X77777980Y-138901626D01*
X76679605Y-140000000D01*
X76320395Y-140000000D01*
X75222020Y-138901626D01*
X74937164Y-139021514D01*
X74776301Y-139345210D01*
X74681678Y-139694069D01*
X74656933Y-140054684D01*
X56835562Y-140054684D01*
X56843067Y-139945316D01*
X56796985Y-139586802D01*
X56681846Y-139244167D01*
X56562836Y-139021514D01*
X56277980Y-138901626D01*
X55179605Y-140000000D01*
X54820395Y-140000000D01*
X53722020Y-138901626D01*
X53437164Y-139021514D01*
X53276301Y-139345210D01*
X53181678Y-139694069D01*
X53156933Y-140054684D01*
X52127000Y-140054684D01*
X52127000Y-138127000D01*
X54074952Y-138127000D01*
X54110498Y-138244180D01*
G37*
X54110498Y-138244180D02*
X54169463Y-138354494D01*
X54171511Y-138356989D01*
X54021514Y-138437164D01*
X53901626Y-138722020D01*
X55000000Y-139820395D01*
X56098374Y-138722020D01*
X55978486Y-138437164D01*
X55825206Y-138360990D01*
X55830537Y-138354494D01*
X55889502Y-138244180D01*
X55925048Y-138127000D01*
X59074952Y-138127000D01*
X59110498Y-138244180D01*
X59169463Y-138354494D01*
X59248815Y-138451185D01*
X59345506Y-138530537D01*
X59455820Y-138589502D01*
X59575518Y-138625812D01*
X59700000Y-138638072D01*
X59714250Y-138635000D01*
X59873000Y-138476250D01*
X59873000Y-138127000D01*
X60127000Y-138127000D01*
X60127000Y-138476250D01*
X60285750Y-138635000D01*
X60300000Y-138638072D01*
X60424482Y-138625812D01*
X60544180Y-138589502D01*
X60654494Y-138530537D01*
X60751185Y-138451185D01*
X60830537Y-138354494D01*
X60889502Y-138244180D01*
X60925048Y-138127000D01*
X64074952Y-138127000D01*
X64110498Y-138244180D01*
X64169463Y-138354494D01*
X64248815Y-138451185D01*
X64345506Y-138530537D01*
X64455820Y-138589502D01*
X64575518Y-138625812D01*
X64700000Y-138638072D01*
X64714250Y-138635000D01*
X64873000Y-138476250D01*
X64873000Y-138127000D01*
X65127000Y-138127000D01*
X65127000Y-138476250D01*
X65285750Y-138635000D01*
X65300000Y-138638072D01*
X65424482Y-138625812D01*
X65544180Y-138589502D01*
X65654494Y-138530537D01*
X65751185Y-138451185D01*
X65830537Y-138354494D01*
X65889502Y-138244180D01*
X65925048Y-138127000D01*
X69074952Y-138127000D01*
X69110498Y-138244180D01*
X69169463Y-138354494D01*
X69248815Y-138451185D01*
X69345506Y-138530537D01*
X69455820Y-138589502D01*
X69575518Y-138625812D01*
X69700000Y-138638072D01*
X69714250Y-138635000D01*
X69873000Y-138476250D01*
X69873000Y-138127000D01*
X70127000Y-138127000D01*
X70127000Y-138476250D01*
X70285750Y-138635000D01*
X70300000Y-138638072D01*
X70424482Y-138625812D01*
X70544180Y-138589502D01*
X70654494Y-138530537D01*
X70751185Y-138451185D01*
X70830537Y-138354494D01*
X70889502Y-138244180D01*
X70925048Y-138127000D01*
X74074952Y-138127000D01*
X74110498Y-138244180D01*
X74169463Y-138354494D01*
X74248815Y-138451185D01*
X74345506Y-138530537D01*
X74455820Y-138589502D01*
X74575518Y-138625812D01*
X74700000Y-138638072D01*
X74714250Y-138635000D01*
X74873000Y-138476250D01*
X74873000Y-138127000D01*
X75127000Y-138127000D01*
X75127000Y-138476250D01*
X75285750Y-138635000D01*
X75300000Y-138638072D01*
X75424482Y-138625812D01*
X75444698Y-138619679D01*
X75401626Y-138722020D01*
X76500000Y-139820395D01*
X77598374Y-138722020D01*
X77478486Y-138437164D01*
X77154790Y-138276301D01*
X76805931Y-138181678D01*
X76445316Y-138156933D01*
X76086802Y-138203015D01*
X75873125Y-138274819D01*
X75889502Y-138244180D01*
X75925048Y-138127000D01*
X79074952Y-138127000D01*
X79110498Y-138244180D01*
X79169463Y-138354494D01*
X79248815Y-138451185D01*
X79345506Y-138530537D01*
X79455820Y-138589502D01*
X79575518Y-138625812D01*
X79700000Y-138638072D01*
X79714250Y-138635000D01*
X79873000Y-138476250D01*
X79873000Y-138127000D01*
X80127000Y-138127000D01*
X80127000Y-138476250D01*
X80285750Y-138635000D01*
X80300000Y-138638072D01*
X80424482Y-138625812D01*
X80544180Y-138589502D01*
X80654494Y-138530537D01*
X80751185Y-138451185D01*
X80830537Y-138354494D01*
X80889502Y-138244180D01*
X80925048Y-138127000D01*
X84074952Y-138127000D01*
X84110498Y-138244180D01*
X84169463Y-138354494D01*
X84248815Y-138451185D01*
X84345506Y-138530537D01*
X84455820Y-138589502D01*
X84575518Y-138625812D01*
X84700000Y-138638072D01*
X84714250Y-138635000D01*
X84873000Y-138476250D01*
X84873000Y-138127000D01*
X85127000Y-138127000D01*
X85127000Y-138476250D01*
X85285750Y-138635000D01*
X85300000Y-138638072D01*
X85424482Y-138625812D01*
X85544180Y-138589502D01*
X85654494Y-138530537D01*
X85751185Y-138451185D01*
X85830537Y-138354494D01*
X85889502Y-138244180D01*
X85925048Y-138127000D01*
X89074952Y-138127000D01*
X89110498Y-138244180D01*
X89169463Y-138354494D01*
X89248815Y-138451185D01*
X89345506Y-138530537D01*
X89455820Y-138589502D01*
X89575518Y-138625812D01*
X89700000Y-138638072D01*
X89714250Y-138635000D01*
X89873000Y-138476250D01*
X89873000Y-138127000D01*
X90127000Y-138127000D01*
X90127000Y-138476250D01*
X90285750Y-138635000D01*
X90300000Y-138638072D01*
X90424482Y-138625812D01*
X90544180Y-138589502D01*
X90654494Y-138530537D01*
X90751185Y-138451185D01*
X90830537Y-138354494D01*
X90889502Y-138244180D01*
X90925048Y-138127000D01*
X94074952Y-138127000D01*
X94110498Y-138244180D01*
X94169463Y-138354494D01*
X94248815Y-138451185D01*
X94345506Y-138530537D01*
X94455820Y-138589502D01*
X94575518Y-138625812D01*
X94700000Y-138638072D01*
X94714250Y-138635000D01*
X94873000Y-138476250D01*
X94873000Y-138127000D01*
X95127000Y-138127000D01*
X95127000Y-138476250D01*
X95285750Y-138635000D01*
X95300000Y-138638072D01*
X95424482Y-138625812D01*
X95544180Y-138589502D01*
X95654494Y-138530537D01*
X95751185Y-138451185D01*
X95830537Y-138354494D01*
X95889502Y-138244180D01*
X95925048Y-138127000D01*
X99074952Y-138127000D01*
X99110498Y-138244180D01*
X99169463Y-138354494D01*
X99171511Y-138356989D01*
X99021514Y-138437164D01*
X98901626Y-138722020D01*
X100000000Y-139820395D01*
X101098374Y-138722020D01*
X121401626Y-138722020D01*
X122500000Y-139820395D01*
X123598374Y-138722020D01*
X123478486Y-138437164D01*
X123154790Y-138276301D01*
X122805931Y-138181678D01*
X122445316Y-138156933D01*
X122086802Y-138203015D01*
X121744167Y-138318154D01*
X121521514Y-138437164D01*
X121401626Y-138722020D01*
X101098374Y-138722020D01*
X100978486Y-138437164D01*
X100825206Y-138360990D01*
X100830537Y-138354494D01*
X100889502Y-138244180D01*
X100925048Y-138127000D01*
X104074952Y-138127000D01*
X104110498Y-138244180D01*
X104169463Y-138354494D01*
X104248815Y-138451185D01*
X104345506Y-138530537D01*
X104455820Y-138589502D01*
X104575518Y-138625812D01*
X104700000Y-138638072D01*
X104714250Y-138635000D01*
X104873000Y-138476250D01*
X104873000Y-138127000D01*
X105127000Y-138127000D01*
X105127000Y-138476250D01*
X105285750Y-138635000D01*
X105300000Y-138638072D01*
X105424482Y-138625812D01*
X105544180Y-138589502D01*
X105654494Y-138530537D01*
X105751185Y-138451185D01*
X105830537Y-138354494D01*
X105889502Y-138244180D01*
X105925048Y-138127000D01*
X109074952Y-138127000D01*
X109110498Y-138244180D01*
X109169463Y-138354494D01*
X109248815Y-138451185D01*
X109345506Y-138530537D01*
X109455820Y-138589502D01*
X109575518Y-138625812D01*
X109700000Y-138638072D01*
X109714250Y-138635000D01*
X109873000Y-138476250D01*
X109873000Y-138127000D01*
X110127000Y-138127000D01*
X110127000Y-138476250D01*
X110285750Y-138635000D01*
X110300000Y-138638072D01*
X110424482Y-138625812D01*
X110544180Y-138589502D01*
X110654494Y-138530537D01*
X110751185Y-138451185D01*
X110830537Y-138354494D01*
X110889502Y-138244180D01*
X110925048Y-138127000D01*
X114074952Y-138127000D01*
X114110498Y-138244180D01*
X114169463Y-138354494D01*
X114248815Y-138451185D01*
X114345506Y-138530537D01*
X114455820Y-138589502D01*
X114575518Y-138625812D01*
X114700000Y-138638072D01*
X114714250Y-138635000D01*
X114873000Y-138476250D01*
X114873000Y-138127000D01*
X115127000Y-138127000D01*
X115127000Y-138476250D01*
X115285750Y-138635000D01*
X115300000Y-138638072D01*
X115424482Y-138625812D01*
X115544180Y-138589502D01*
X115654494Y-138530537D01*
X115751185Y-138451185D01*
X115830537Y-138354494D01*
X115889502Y-138244180D01*
X115925048Y-138127000D01*
X119074952Y-138127000D01*
X119110498Y-138244180D01*
X119169463Y-138354494D01*
X119248815Y-138451185D01*
X119345506Y-138530537D01*
X119455820Y-138589502D01*
X119575518Y-138625812D01*
X119700000Y-138638072D01*
X119714250Y-138635000D01*
X119873000Y-138476250D01*
X119873000Y-138127000D01*
X120127000Y-138127000D01*
X120127000Y-138476250D01*
X120285750Y-138635000D01*
X120300000Y-138638072D01*
X120424482Y-138625812D01*
X120544180Y-138589502D01*
X120654494Y-138530537D01*
X120751185Y-138451185D01*
X120830537Y-138354494D01*
X120889502Y-138244180D01*
X120925048Y-138127000D01*
X124074952Y-138127000D01*
X124110498Y-138244180D01*
X124169463Y-138354494D01*
X124248815Y-138451185D01*
X124345506Y-138530537D01*
X124455820Y-138589502D01*
X124575518Y-138625812D01*
X124700000Y-138638072D01*
X124714250Y-138635000D01*
X124873000Y-138476250D01*
X124873000Y-138127000D01*
X125127000Y-138127000D01*
X125127000Y-138476250D01*
X125285750Y-138635000D01*
X125300000Y-138638072D01*
X125424482Y-138625812D01*
X125544180Y-138589502D01*
X125654494Y-138530537D01*
X125751185Y-138451185D01*
X125830537Y-138354494D01*
X125889502Y-138244180D01*
X125925048Y-138127000D01*
X129074952Y-138127000D01*
X129110498Y-138244180D01*
X129169463Y-138354494D01*
X129248815Y-138451185D01*
X129345506Y-138530537D01*
X129455820Y-138589502D01*
X129575518Y-138625812D01*
X129700000Y-138638072D01*
X129714250Y-138635000D01*
X129873000Y-138476250D01*
X129873000Y-138127000D01*
X130127000Y-138127000D01*
X130127000Y-138476250D01*
X130285750Y-138635000D01*
X130300000Y-138638072D01*
X130424482Y-138625812D01*
X130544180Y-138589502D01*
X130654494Y-138530537D01*
X130751185Y-138451185D01*
X130830537Y-138354494D01*
X130889502Y-138244180D01*
X130925048Y-138127000D01*
X134074952Y-138127000D01*
X134110498Y-138244180D01*
X134169463Y-138354494D01*
X134248815Y-138451185D01*
X134345506Y-138530537D01*
X134455820Y-138589502D01*
X134575518Y-138625812D01*
X134700000Y-138638072D01*
X134714250Y-138635000D01*
X134873000Y-138476250D01*
X134873000Y-138127000D01*
X135127000Y-138127000D01*
X135127000Y-138476250D01*
X135285750Y-138635000D01*
X135300000Y-138638072D01*
X135424482Y-138625812D01*
X135544180Y-138589502D01*
X135654494Y-138530537D01*
X135751185Y-138451185D01*
X135830537Y-138354494D01*
X135889502Y-138244180D01*
X135925048Y-138127000D01*
X139074952Y-138127000D01*
X139110498Y-138244180D01*
X139169463Y-138354494D01*
X139248815Y-138451185D01*
X139345506Y-138530537D01*
X139455820Y-138589502D01*
X139575518Y-138625812D01*
X139700000Y-138638072D01*
X139714250Y-138635000D01*
X139873000Y-138476250D01*
X139873000Y-138127000D01*
X140127000Y-138127000D01*
X140127000Y-138476250D01*
X140285750Y-138635000D01*
X140300000Y-138638072D01*
X140424482Y-138625812D01*
X140544180Y-138589502D01*
X140654494Y-138530537D01*
X140751185Y-138451185D01*
X140830537Y-138354494D01*
X140889502Y-138244180D01*
X140925048Y-138127000D01*
X144074952Y-138127000D01*
X144110498Y-138244180D01*
X144169463Y-138354494D01*
X144171511Y-138356989D01*
X144021514Y-138437164D01*
X143901626Y-138722020D01*
X145000000Y-139820395D01*
X146098374Y-138722020D01*
X145978486Y-138437164D01*
X145825206Y-138360990D01*
X145830537Y-138354494D01*
X145889502Y-138244180D01*
X145925048Y-138127000D01*
X148873000Y-138127000D01*
X148873000Y-141873000D01*
X52127000Y-141873000D01*
X52127000Y-141277980D01*
X53901626Y-141277980D01*
X54021514Y-141562836D01*
X54345210Y-141723699D01*
X54694069Y-141818322D01*
X55054684Y-141843067D01*
X55413198Y-141796985D01*
X55755833Y-141681846D01*
X55978486Y-141562836D01*
X56098374Y-141277980D01*
X75401626Y-141277980D01*
X75521514Y-141562836D01*
X75845210Y-141723699D01*
X76194069Y-141818322D01*
X76554684Y-141843067D01*
X76913198Y-141796985D01*
X77255833Y-141681846D01*
X77478486Y-141562836D01*
X77598374Y-141277980D01*
X98901626Y-141277980D01*
X99021514Y-141562836D01*
X99345210Y-141723699D01*
X99694069Y-141818322D01*
X100054684Y-141843067D01*
X100413198Y-141796985D01*
X100755833Y-141681846D01*
X100978486Y-141562836D01*
X101098374Y-141277980D01*
X121401626Y-141277980D01*
X121521514Y-141562836D01*
X121845210Y-141723699D01*
X122194069Y-141818322D01*
X122554684Y-141843067D01*
X122913198Y-141796985D01*
X123255833Y-141681846D01*
X123478486Y-141562836D01*
X123598374Y-141277980D01*
X143901626Y-141277980D01*
X144021514Y-141562836D01*
X144345210Y-141723699D01*
X144694069Y-141818322D01*
X145054684Y-141843067D01*
X145413198Y-141796985D01*
X145755833Y-141681846D01*
X145978486Y-141562836D01*
X146098374Y-141277980D01*
X145000000Y-140179605D01*
X143901626Y-141277980D01*
X123598374Y-141277980D01*
X122500000Y-140179605D01*
X121401626Y-141277980D01*
X101098374Y-141277980D01*
X100000000Y-140179605D01*
X98901626Y-141277980D01*
X77598374Y-141277980D01*
X76500000Y-140179605D01*
X75401626Y-141277980D01*
X56098374Y-141277980D01*
X55000000Y-140179605D01*
X53901626Y-141277980D01*
X52127000Y-141277980D01*
X52127000Y-140054684D01*
X53156933Y-140054684D01*
X53203015Y-140413198D01*
X53318154Y-140755833D01*
X53437164Y-140978486D01*
X53722020Y-141098374D01*
X54820395Y-140000000D01*
X55179605Y-140000000D01*
X56277980Y-141098374D01*
X56562836Y-140978486D01*
X56723699Y-140654790D01*
X56818322Y-140305931D01*
X56835562Y-140054684D01*
X74656933Y-140054684D01*
X74703015Y-140413198D01*
X74818154Y-140755833D01*
X74937164Y-140978486D01*
X75222020Y-141098374D01*
X76320395Y-140000000D01*
X76679605Y-140000000D01*
X77777980Y-141098374D01*
X78062836Y-140978486D01*
X78223699Y-140654790D01*
X78318322Y-140305931D01*
X78335562Y-140054684D01*
X98156933Y-140054684D01*
X98203015Y-140413198D01*
X98318154Y-140755833D01*
X98437164Y-140978486D01*
X98722020Y-141098374D01*
X99820395Y-140000000D01*
X100179605Y-140000000D01*
X101277980Y-141098374D01*
X101562836Y-140978486D01*
X101723699Y-140654790D01*
X101818322Y-140305931D01*
X101835562Y-140054684D01*
X120656933Y-140054684D01*
X120703015Y-140413198D01*
X120818154Y-140755833D01*
X120937164Y-140978486D01*
X121222020Y-141098374D01*
X122320395Y-140000000D01*
X122679605Y-140000000D01*
X123777980Y-141098374D01*
X124062836Y-140978486D01*
X124223699Y-140654790D01*
X124318322Y-140305931D01*
X124335562Y-140054684D01*
X143156933Y-140054684D01*
X143203015Y-140413198D01*
X143318154Y-140755833D01*
X143437164Y-140978486D01*
X143722020Y-141098374D01*
X144820395Y-140000000D01*
X145179605Y-140000000D01*
X146277980Y-141098374D01*
X146562836Y-140978486D01*
X146723699Y-140654790D01*
X146818322Y-140305931D01*
X146843067Y-139945316D01*
X146796985Y-139586802D01*
X146681846Y-139244167D01*
X146562836Y-139021514D01*
X146277980Y-138901626D01*
X145179605Y-140000000D01*
X144820395Y-140000000D01*
X143722020Y-138901626D01*
X143437164Y-139021514D01*
X143276301Y-139345210D01*
X143181678Y-139694069D01*
X143156933Y-140054684D01*
X124335562Y-140054684D01*
X124343067Y-139945316D01*
X124296985Y-139586802D01*
X124181846Y-139244167D01*
X124062836Y-139021514D01*
X123777980Y-138901626D01*
X122679605Y-140000000D01*
X122320395Y-140000000D01*
X121222020Y-138901626D01*
X120937164Y-139021514D01*
X120776301Y-139345210D01*
X120681678Y-139694069D01*
X120656933Y-140054684D01*
X101835562Y-140054684D01*
X101843067Y-139945316D01*
X101796985Y-139586802D01*
X101681846Y-139244167D01*
X101562836Y-139021514D01*
X101277980Y-138901626D01*
X100179605Y-140000000D01*
X99820395Y-140000000D01*
X98722020Y-138901626D01*
X98437164Y-139021514D01*
X98276301Y-139345210D01*
X98181678Y-139694069D01*
X98156933Y-140054684D01*
X78335562Y-140054684D01*
X78343067Y-139945316D01*
X78296985Y-139586802D01*
X78181846Y-139244167D01*
X78062836Y-139021514D01*
X77777980Y-138901626D01*
X76679605Y-140000000D01*
X76320395Y-140000000D01*
X75222020Y-138901626D01*
X74937164Y-139021514D01*
X74776301Y-139345210D01*
X74681678Y-139694069D01*
X74656933Y-140054684D01*
X56835562Y-140054684D01*
X56843067Y-139945316D01*
X56796985Y-139586802D01*
X56681846Y-139244167D01*
X56562836Y-139021514D01*
X56277980Y-138901626D01*
X55179605Y-140000000D01*
X54820395Y-140000000D01*
X53722020Y-138901626D01*
X53437164Y-139021514D01*
X53276301Y-139345210D01*
X53181678Y-139694069D01*
X53156933Y-140054684D01*
X52127000Y-140054684D01*
X52127000Y-138127000D01*
X54074952Y-138127000D01*
X54110498Y-138244180D01*
M02*
