G04 #@! TF.GenerationSoftware,KiCad,Pcbnew,5.1.5-1.fc30*
G04 #@! TF.CreationDate,2021-07-11T13:39:17+02:00*
G04 #@! TF.ProjectId,pcb-haloscope,7063622d-6861-46c6-9f73-636f70652e6b,rev?*
G04 #@! TF.SameCoordinates,Original*
G04 #@! TF.FileFunction,Copper,L1,Top*
G04 #@! TF.FilePolarity,Positive*
%FSLAX46Y46*%
G04 Gerber Fmt 4.6, Leading zero omitted, Abs format (unit mm)*
G04 Created by KiCad (PCBNEW 5.1.5-1.fc30) date 2021-07-11 13:39:17*
%MOMM*%
%LPD*%
G04 APERTURE LIST*
%ADD10C,2.400000*%
%ADD11C,0.100000*%
%ADD12C,0.254000*%
G04 APERTURE END LIST*
D10*
X55000000Y-50000000D03*
X76500000Y-50000000D03*
X100000000Y-50000000D03*
X122500000Y-50000000D03*
X145000000Y-50000000D03*
X55000000Y-140000000D03*
X76500000Y-140000000D03*
X100000000Y-140000000D03*
X122500000Y-140000000D03*
X145000000Y-140000000D03*
D11*
X60000000Y-140000000D02*
X60000000Y-50000000D01*
X65000000Y-50000000D02*
X65000000Y-140000000D01*
X70000000Y-140000000D02*
X70000000Y-50000000D01*
X80000000Y-140000000D02*
X80000000Y-51000000D01*
X85000000Y-50500000D02*
X85000000Y-140000000D01*
X90000000Y-139500000D02*
X90000000Y-50000000D01*
X95000000Y-50000000D02*
X95000000Y-140000000D01*
X105000000Y-50500000D02*
X105000000Y-139500000D01*
X110000000Y-140000000D02*
X110000000Y-50500000D01*
X115000000Y-50000000D02*
X115000000Y-139500000D01*
X120000000Y-140000000D02*
X120000000Y-50500000D01*
X125000000Y-50500000D02*
X125000000Y-140000000D01*
X130000000Y-140000000D02*
X130000000Y-50000000D01*
X135000000Y-50000000D02*
X135000000Y-140500000D01*
X140000000Y-140000000D02*
X140000000Y-50500000D01*
X55000000Y-50000000D02*
X55000000Y-140000000D01*
X76500000Y-50000000D02*
X75300001Y-51199999D01*
X75300001Y-51199999D02*
X75000000Y-51500000D01*
X75000000Y-51500000D02*
X75000000Y-53000000D01*
X75000000Y-53000000D02*
X75000000Y-63000000D01*
X75000000Y-63000000D02*
X75000000Y-108500000D01*
X75000000Y-108500000D02*
X75000000Y-135500000D01*
X75000000Y-135500000D02*
X75000000Y-138500000D01*
X100000000Y-140000000D02*
X100000000Y-50000000D01*
X145000000Y-135424278D02*
X145000000Y-140000000D01*
X145000000Y-50000000D02*
X145000000Y-135424278D01*
D12*
G36*
X148873000Y-51873000D02*
G01*
X51127000Y-51873000D01*
X51127000Y-51277980D01*
X53901626Y-51277980D01*
X54021514Y-51562836D01*
X54345210Y-51723699D01*
X54694069Y-51818322D01*
X55054684Y-51843067D01*
X55413198Y-51796985D01*
X55755833Y-51681846D01*
X55978486Y-51562836D01*
X56098374Y-51277980D01*
X75401626Y-51277980D01*
X75521514Y-51562836D01*
X75845210Y-51723699D01*
X76194069Y-51818322D01*
X76554684Y-51843067D01*
X76913198Y-51796985D01*
X77255833Y-51681846D01*
X77478486Y-51562836D01*
X77598374Y-51277980D01*
X98901626Y-51277980D01*
X99021514Y-51562836D01*
X99345210Y-51723699D01*
X99694069Y-51818322D01*
X100054684Y-51843067D01*
X100413198Y-51796985D01*
X100755833Y-51681846D01*
X100978486Y-51562836D01*
X101098374Y-51277980D01*
X121401626Y-51277980D01*
X121521514Y-51562836D01*
X121845210Y-51723699D01*
X122194069Y-51818322D01*
X122554684Y-51843067D01*
X122913198Y-51796985D01*
X123255833Y-51681846D01*
X123478486Y-51562836D01*
X123598374Y-51277980D01*
X143901626Y-51277980D01*
X144021514Y-51562836D01*
X144345210Y-51723699D01*
X144694069Y-51818322D01*
X145054684Y-51843067D01*
X145413198Y-51796985D01*
X145755833Y-51681846D01*
X145978486Y-51562836D01*
X146098374Y-51277980D01*
X145000000Y-50179605D01*
X143901626Y-51277980D01*
X123598374Y-51277980D01*
X122500000Y-50179605D01*
X121401626Y-51277980D01*
X101098374Y-51277980D01*
X100000000Y-50179605D01*
X98901626Y-51277980D01*
X77598374Y-51277980D01*
X76500000Y-50179605D01*
X75401626Y-51277980D01*
X56098374Y-51277980D01*
X55000000Y-50179605D01*
X53901626Y-51277980D01*
X51127000Y-51277980D01*
X51127000Y-50054684D01*
X53156933Y-50054684D01*
X53203015Y-50413198D01*
X53318154Y-50755833D01*
X53437164Y-50978486D01*
X53722020Y-51098374D01*
X54820395Y-50000000D01*
X55179605Y-50000000D01*
X56277980Y-51098374D01*
X56562836Y-50978486D01*
X56723699Y-50654790D01*
X56818322Y-50305931D01*
X56835562Y-50054684D01*
X74656933Y-50054684D01*
X74703015Y-50413198D01*
X74818154Y-50755833D01*
X74937164Y-50978486D01*
X75222020Y-51098374D01*
X76320395Y-50000000D01*
X76679605Y-50000000D01*
X77777980Y-51098374D01*
X78062836Y-50978486D01*
X78223699Y-50654790D01*
X78318322Y-50305931D01*
X78335562Y-50054684D01*
X98156933Y-50054684D01*
X98203015Y-50413198D01*
X98318154Y-50755833D01*
X98437164Y-50978486D01*
X98722020Y-51098374D01*
X99820395Y-50000000D01*
X100179605Y-50000000D01*
X101277980Y-51098374D01*
X101562836Y-50978486D01*
X101723699Y-50654790D01*
X101818322Y-50305931D01*
X101835562Y-50054684D01*
X120656933Y-50054684D01*
X120703015Y-50413198D01*
X120818154Y-50755833D01*
X120937164Y-50978486D01*
X121222020Y-51098374D01*
X122320395Y-50000000D01*
X122679605Y-50000000D01*
X123777980Y-51098374D01*
X124062836Y-50978486D01*
X124223699Y-50654790D01*
X124318322Y-50305931D01*
X124335562Y-50054684D01*
X143156933Y-50054684D01*
X143203015Y-50413198D01*
X143318154Y-50755833D01*
X143437164Y-50978486D01*
X143722020Y-51098374D01*
X144820395Y-50000000D01*
X145179605Y-50000000D01*
X146277980Y-51098374D01*
X146562836Y-50978486D01*
X146723699Y-50654790D01*
X146818322Y-50305931D01*
X146843067Y-49945316D01*
X146796985Y-49586802D01*
X146681846Y-49244167D01*
X146562836Y-49021514D01*
X146277980Y-48901626D01*
X145179605Y-50000000D01*
X144820395Y-50000000D01*
X143722020Y-48901626D01*
X143437164Y-49021514D01*
X143276301Y-49345210D01*
X143181678Y-49694069D01*
X143156933Y-50054684D01*
X124335562Y-50054684D01*
X124343067Y-49945316D01*
X124296985Y-49586802D01*
X124181846Y-49244167D01*
X124062836Y-49021514D01*
X123777980Y-48901626D01*
X122679605Y-50000000D01*
X122320395Y-50000000D01*
X121222020Y-48901626D01*
X120937164Y-49021514D01*
X120776301Y-49345210D01*
X120681678Y-49694069D01*
X120656933Y-50054684D01*
X101835562Y-50054684D01*
X101843067Y-49945316D01*
X101796985Y-49586802D01*
X101681846Y-49244167D01*
X101562836Y-49021514D01*
X101277980Y-48901626D01*
X100179605Y-50000000D01*
X99820395Y-50000000D01*
X98722020Y-48901626D01*
X98437164Y-49021514D01*
X98276301Y-49345210D01*
X98181678Y-49694069D01*
X98156933Y-50054684D01*
X78335562Y-50054684D01*
X78343067Y-49945316D01*
X78296985Y-49586802D01*
X78181846Y-49244167D01*
X78062836Y-49021514D01*
X77777980Y-48901626D01*
X76679605Y-50000000D01*
X76320395Y-50000000D01*
X75222020Y-48901626D01*
X74937164Y-49021514D01*
X74776301Y-49345210D01*
X74681678Y-49694069D01*
X74656933Y-50054684D01*
X56835562Y-50054684D01*
X56843067Y-49945316D01*
X56796985Y-49586802D01*
X56681846Y-49244167D01*
X56562836Y-49021514D01*
X56277980Y-48901626D01*
X55179605Y-50000000D01*
X54820395Y-50000000D01*
X53722020Y-48901626D01*
X53437164Y-49021514D01*
X53276301Y-49345210D01*
X53181678Y-49694069D01*
X53156933Y-50054684D01*
X51127000Y-50054684D01*
X51127000Y-48722020D01*
X53901626Y-48722020D01*
X55000000Y-49820395D01*
X56098374Y-48722020D01*
X75401626Y-48722020D01*
X76500000Y-49820395D01*
X77598374Y-48722020D01*
X98901626Y-48722020D01*
X100000000Y-49820395D01*
X101098374Y-48722020D01*
X121401626Y-48722020D01*
X122500000Y-49820395D01*
X123598374Y-48722020D01*
X143901626Y-48722020D01*
X145000000Y-49820395D01*
X146098374Y-48722020D01*
X145978486Y-48437164D01*
X145654790Y-48276301D01*
X145305931Y-48181678D01*
X144945316Y-48156933D01*
X144586802Y-48203015D01*
X144244167Y-48318154D01*
X144021514Y-48437164D01*
X143901626Y-48722020D01*
X123598374Y-48722020D01*
X123478486Y-48437164D01*
X123154790Y-48276301D01*
X122805931Y-48181678D01*
X122445316Y-48156933D01*
X122086802Y-48203015D01*
X121744167Y-48318154D01*
X121521514Y-48437164D01*
X121401626Y-48722020D01*
X101098374Y-48722020D01*
X100978486Y-48437164D01*
X100654790Y-48276301D01*
X100305931Y-48181678D01*
X99945316Y-48156933D01*
X99586802Y-48203015D01*
X99244167Y-48318154D01*
X99021514Y-48437164D01*
X98901626Y-48722020D01*
X77598374Y-48722020D01*
X77478486Y-48437164D01*
X77154790Y-48276301D01*
X76805931Y-48181678D01*
X76445316Y-48156933D01*
X76086802Y-48203015D01*
X75744167Y-48318154D01*
X75521514Y-48437164D01*
X75401626Y-48722020D01*
X56098374Y-48722020D01*
X55978486Y-48437164D01*
X55654790Y-48276301D01*
X55305931Y-48181678D01*
X54945316Y-48156933D01*
X54586802Y-48203015D01*
X54244167Y-48318154D01*
X54021514Y-48437164D01*
X53901626Y-48722020D01*
X51127000Y-48722020D01*
X51127000Y-48127000D01*
X148873000Y-48127000D01*
X148873000Y-51873000D01*
G37*
X148873000Y-51873000D02*
X51127000Y-51873000D01*
X51127000Y-51277980D01*
X53901626Y-51277980D01*
X54021514Y-51562836D01*
X54345210Y-51723699D01*
X54694069Y-51818322D01*
X55054684Y-51843067D01*
X55413198Y-51796985D01*
X55755833Y-51681846D01*
X55978486Y-51562836D01*
X56098374Y-51277980D01*
X75401626Y-51277980D01*
X75521514Y-51562836D01*
X75845210Y-51723699D01*
X76194069Y-51818322D01*
X76554684Y-51843067D01*
X76913198Y-51796985D01*
X77255833Y-51681846D01*
X77478486Y-51562836D01*
X77598374Y-51277980D01*
X98901626Y-51277980D01*
X99021514Y-51562836D01*
X99345210Y-51723699D01*
X99694069Y-51818322D01*
X100054684Y-51843067D01*
X100413198Y-51796985D01*
X100755833Y-51681846D01*
X100978486Y-51562836D01*
X101098374Y-51277980D01*
X121401626Y-51277980D01*
X121521514Y-51562836D01*
X121845210Y-51723699D01*
X122194069Y-51818322D01*
X122554684Y-51843067D01*
X122913198Y-51796985D01*
X123255833Y-51681846D01*
X123478486Y-51562836D01*
X123598374Y-51277980D01*
X143901626Y-51277980D01*
X144021514Y-51562836D01*
X144345210Y-51723699D01*
X144694069Y-51818322D01*
X145054684Y-51843067D01*
X145413198Y-51796985D01*
X145755833Y-51681846D01*
X145978486Y-51562836D01*
X146098374Y-51277980D01*
X145000000Y-50179605D01*
X143901626Y-51277980D01*
X123598374Y-51277980D01*
X122500000Y-50179605D01*
X121401626Y-51277980D01*
X101098374Y-51277980D01*
X100000000Y-50179605D01*
X98901626Y-51277980D01*
X77598374Y-51277980D01*
X76500000Y-50179605D01*
X75401626Y-51277980D01*
X56098374Y-51277980D01*
X55000000Y-50179605D01*
X53901626Y-51277980D01*
X51127000Y-51277980D01*
X51127000Y-50054684D01*
X53156933Y-50054684D01*
X53203015Y-50413198D01*
X53318154Y-50755833D01*
X53437164Y-50978486D01*
X53722020Y-51098374D01*
X54820395Y-50000000D01*
X55179605Y-50000000D01*
X56277980Y-51098374D01*
X56562836Y-50978486D01*
X56723699Y-50654790D01*
X56818322Y-50305931D01*
X56835562Y-50054684D01*
X74656933Y-50054684D01*
X74703015Y-50413198D01*
X74818154Y-50755833D01*
X74937164Y-50978486D01*
X75222020Y-51098374D01*
X76320395Y-50000000D01*
X76679605Y-50000000D01*
X77777980Y-51098374D01*
X78062836Y-50978486D01*
X78223699Y-50654790D01*
X78318322Y-50305931D01*
X78335562Y-50054684D01*
X98156933Y-50054684D01*
X98203015Y-50413198D01*
X98318154Y-50755833D01*
X98437164Y-50978486D01*
X98722020Y-51098374D01*
X99820395Y-50000000D01*
X100179605Y-50000000D01*
X101277980Y-51098374D01*
X101562836Y-50978486D01*
X101723699Y-50654790D01*
X101818322Y-50305931D01*
X101835562Y-50054684D01*
X120656933Y-50054684D01*
X120703015Y-50413198D01*
X120818154Y-50755833D01*
X120937164Y-50978486D01*
X121222020Y-51098374D01*
X122320395Y-50000000D01*
X122679605Y-50000000D01*
X123777980Y-51098374D01*
X124062836Y-50978486D01*
X124223699Y-50654790D01*
X124318322Y-50305931D01*
X124335562Y-50054684D01*
X143156933Y-50054684D01*
X143203015Y-50413198D01*
X143318154Y-50755833D01*
X143437164Y-50978486D01*
X143722020Y-51098374D01*
X144820395Y-50000000D01*
X145179605Y-50000000D01*
X146277980Y-51098374D01*
X146562836Y-50978486D01*
X146723699Y-50654790D01*
X146818322Y-50305931D01*
X146843067Y-49945316D01*
X146796985Y-49586802D01*
X146681846Y-49244167D01*
X146562836Y-49021514D01*
X146277980Y-48901626D01*
X145179605Y-50000000D01*
X144820395Y-50000000D01*
X143722020Y-48901626D01*
X143437164Y-49021514D01*
X143276301Y-49345210D01*
X143181678Y-49694069D01*
X143156933Y-50054684D01*
X124335562Y-50054684D01*
X124343067Y-49945316D01*
X124296985Y-49586802D01*
X124181846Y-49244167D01*
X124062836Y-49021514D01*
X123777980Y-48901626D01*
X122679605Y-50000000D01*
X122320395Y-50000000D01*
X121222020Y-48901626D01*
X120937164Y-49021514D01*
X120776301Y-49345210D01*
X120681678Y-49694069D01*
X120656933Y-50054684D01*
X101835562Y-50054684D01*
X101843067Y-49945316D01*
X101796985Y-49586802D01*
X101681846Y-49244167D01*
X101562836Y-49021514D01*
X101277980Y-48901626D01*
X100179605Y-50000000D01*
X99820395Y-50000000D01*
X98722020Y-48901626D01*
X98437164Y-49021514D01*
X98276301Y-49345210D01*
X98181678Y-49694069D01*
X98156933Y-50054684D01*
X78335562Y-50054684D01*
X78343067Y-49945316D01*
X78296985Y-49586802D01*
X78181846Y-49244167D01*
X78062836Y-49021514D01*
X77777980Y-48901626D01*
X76679605Y-50000000D01*
X76320395Y-50000000D01*
X75222020Y-48901626D01*
X74937164Y-49021514D01*
X74776301Y-49345210D01*
X74681678Y-49694069D01*
X74656933Y-50054684D01*
X56835562Y-50054684D01*
X56843067Y-49945316D01*
X56796985Y-49586802D01*
X56681846Y-49244167D01*
X56562836Y-49021514D01*
X56277980Y-48901626D01*
X55179605Y-50000000D01*
X54820395Y-50000000D01*
X53722020Y-48901626D01*
X53437164Y-49021514D01*
X53276301Y-49345210D01*
X53181678Y-49694069D01*
X53156933Y-50054684D01*
X51127000Y-50054684D01*
X51127000Y-48722020D01*
X53901626Y-48722020D01*
X55000000Y-49820395D01*
X56098374Y-48722020D01*
X75401626Y-48722020D01*
X76500000Y-49820395D01*
X77598374Y-48722020D01*
X98901626Y-48722020D01*
X100000000Y-49820395D01*
X101098374Y-48722020D01*
X121401626Y-48722020D01*
X122500000Y-49820395D01*
X123598374Y-48722020D01*
X143901626Y-48722020D01*
X145000000Y-49820395D01*
X146098374Y-48722020D01*
X145978486Y-48437164D01*
X145654790Y-48276301D01*
X145305931Y-48181678D01*
X144945316Y-48156933D01*
X144586802Y-48203015D01*
X144244167Y-48318154D01*
X144021514Y-48437164D01*
X143901626Y-48722020D01*
X123598374Y-48722020D01*
X123478486Y-48437164D01*
X123154790Y-48276301D01*
X122805931Y-48181678D01*
X122445316Y-48156933D01*
X122086802Y-48203015D01*
X121744167Y-48318154D01*
X121521514Y-48437164D01*
X121401626Y-48722020D01*
X101098374Y-48722020D01*
X100978486Y-48437164D01*
X100654790Y-48276301D01*
X100305931Y-48181678D01*
X99945316Y-48156933D01*
X99586802Y-48203015D01*
X99244167Y-48318154D01*
X99021514Y-48437164D01*
X98901626Y-48722020D01*
X77598374Y-48722020D01*
X77478486Y-48437164D01*
X77154790Y-48276301D01*
X76805931Y-48181678D01*
X76445316Y-48156933D01*
X76086802Y-48203015D01*
X75744167Y-48318154D01*
X75521514Y-48437164D01*
X75401626Y-48722020D01*
X56098374Y-48722020D01*
X55978486Y-48437164D01*
X55654790Y-48276301D01*
X55305931Y-48181678D01*
X54945316Y-48156933D01*
X54586802Y-48203015D01*
X54244167Y-48318154D01*
X54021514Y-48437164D01*
X53901626Y-48722020D01*
X51127000Y-48722020D01*
X51127000Y-48127000D01*
X148873000Y-48127000D01*
X148873000Y-51873000D01*
G36*
X148873000Y-141873000D02*
G01*
X52127000Y-141873000D01*
X52127000Y-141277980D01*
X53901626Y-141277980D01*
X54021514Y-141562836D01*
X54345210Y-141723699D01*
X54694069Y-141818322D01*
X55054684Y-141843067D01*
X55413198Y-141796985D01*
X55755833Y-141681846D01*
X55978486Y-141562836D01*
X56098374Y-141277980D01*
X75401626Y-141277980D01*
X75521514Y-141562836D01*
X75845210Y-141723699D01*
X76194069Y-141818322D01*
X76554684Y-141843067D01*
X76913198Y-141796985D01*
X77255833Y-141681846D01*
X77478486Y-141562836D01*
X77598374Y-141277980D01*
X98901626Y-141277980D01*
X99021514Y-141562836D01*
X99345210Y-141723699D01*
X99694069Y-141818322D01*
X100054684Y-141843067D01*
X100413198Y-141796985D01*
X100755833Y-141681846D01*
X100978486Y-141562836D01*
X101098374Y-141277980D01*
X121401626Y-141277980D01*
X121521514Y-141562836D01*
X121845210Y-141723699D01*
X122194069Y-141818322D01*
X122554684Y-141843067D01*
X122913198Y-141796985D01*
X123255833Y-141681846D01*
X123478486Y-141562836D01*
X123598374Y-141277980D01*
X143901626Y-141277980D01*
X144021514Y-141562836D01*
X144345210Y-141723699D01*
X144694069Y-141818322D01*
X145054684Y-141843067D01*
X145413198Y-141796985D01*
X145755833Y-141681846D01*
X145978486Y-141562836D01*
X146098374Y-141277980D01*
X145000000Y-140179605D01*
X143901626Y-141277980D01*
X123598374Y-141277980D01*
X122500000Y-140179605D01*
X121401626Y-141277980D01*
X101098374Y-141277980D01*
X100000000Y-140179605D01*
X98901626Y-141277980D01*
X77598374Y-141277980D01*
X76500000Y-140179605D01*
X75401626Y-141277980D01*
X56098374Y-141277980D01*
X55000000Y-140179605D01*
X53901626Y-141277980D01*
X52127000Y-141277980D01*
X52127000Y-140054684D01*
X53156933Y-140054684D01*
X53203015Y-140413198D01*
X53318154Y-140755833D01*
X53437164Y-140978486D01*
X53722020Y-141098374D01*
X54820395Y-140000000D01*
X55179605Y-140000000D01*
X56277980Y-141098374D01*
X56562836Y-140978486D01*
X56723699Y-140654790D01*
X56818322Y-140305931D01*
X56835562Y-140054684D01*
X74656933Y-140054684D01*
X74703015Y-140413198D01*
X74818154Y-140755833D01*
X74937164Y-140978486D01*
X75222020Y-141098374D01*
X76320395Y-140000000D01*
X76679605Y-140000000D01*
X77777980Y-141098374D01*
X78062836Y-140978486D01*
X78223699Y-140654790D01*
X78318322Y-140305931D01*
X78335562Y-140054684D01*
X98156933Y-140054684D01*
X98203015Y-140413198D01*
X98318154Y-140755833D01*
X98437164Y-140978486D01*
X98722020Y-141098374D01*
X99820395Y-140000000D01*
X100179605Y-140000000D01*
X101277980Y-141098374D01*
X101562836Y-140978486D01*
X101723699Y-140654790D01*
X101818322Y-140305931D01*
X101835562Y-140054684D01*
X120656933Y-140054684D01*
X120703015Y-140413198D01*
X120818154Y-140755833D01*
X120937164Y-140978486D01*
X121222020Y-141098374D01*
X122320395Y-140000000D01*
X122679605Y-140000000D01*
X123777980Y-141098374D01*
X124062836Y-140978486D01*
X124223699Y-140654790D01*
X124318322Y-140305931D01*
X124335562Y-140054684D01*
X143156933Y-140054684D01*
X143203015Y-140413198D01*
X143318154Y-140755833D01*
X143437164Y-140978486D01*
X143722020Y-141098374D01*
X144820395Y-140000000D01*
X145179605Y-140000000D01*
X146277980Y-141098374D01*
X146562836Y-140978486D01*
X146723699Y-140654790D01*
X146818322Y-140305931D01*
X146843067Y-139945316D01*
X146796985Y-139586802D01*
X146681846Y-139244167D01*
X146562836Y-139021514D01*
X146277980Y-138901626D01*
X145179605Y-140000000D01*
X144820395Y-140000000D01*
X143722020Y-138901626D01*
X143437164Y-139021514D01*
X143276301Y-139345210D01*
X143181678Y-139694069D01*
X143156933Y-140054684D01*
X124335562Y-140054684D01*
X124343067Y-139945316D01*
X124296985Y-139586802D01*
X124181846Y-139244167D01*
X124062836Y-139021514D01*
X123777980Y-138901626D01*
X122679605Y-140000000D01*
X122320395Y-140000000D01*
X121222020Y-138901626D01*
X120937164Y-139021514D01*
X120776301Y-139345210D01*
X120681678Y-139694069D01*
X120656933Y-140054684D01*
X101835562Y-140054684D01*
X101843067Y-139945316D01*
X101796985Y-139586802D01*
X101681846Y-139244167D01*
X101562836Y-139021514D01*
X101277980Y-138901626D01*
X100179605Y-140000000D01*
X99820395Y-140000000D01*
X98722020Y-138901626D01*
X98437164Y-139021514D01*
X98276301Y-139345210D01*
X98181678Y-139694069D01*
X98156933Y-140054684D01*
X78335562Y-140054684D01*
X78343067Y-139945316D01*
X78296985Y-139586802D01*
X78181846Y-139244167D01*
X78062836Y-139021514D01*
X77777980Y-138901626D01*
X76679605Y-140000000D01*
X76320395Y-140000000D01*
X75222020Y-138901626D01*
X74937164Y-139021514D01*
X74776301Y-139345210D01*
X74681678Y-139694069D01*
X74656933Y-140054684D01*
X56835562Y-140054684D01*
X56843067Y-139945316D01*
X56796985Y-139586802D01*
X56681846Y-139244167D01*
X56562836Y-139021514D01*
X56277980Y-138901626D01*
X55179605Y-140000000D01*
X54820395Y-140000000D01*
X53722020Y-138901626D01*
X53437164Y-139021514D01*
X53276301Y-139345210D01*
X53181678Y-139694069D01*
X53156933Y-140054684D01*
X52127000Y-140054684D01*
X52127000Y-138722020D01*
X53901626Y-138722020D01*
X55000000Y-139820395D01*
X56098374Y-138722020D01*
X75401626Y-138722020D01*
X76500000Y-139820395D01*
X77598374Y-138722020D01*
X98901626Y-138722020D01*
X100000000Y-139820395D01*
X101098374Y-138722020D01*
X121401626Y-138722020D01*
X122500000Y-139820395D01*
X123598374Y-138722020D01*
X143901626Y-138722020D01*
X145000000Y-139820395D01*
X146098374Y-138722020D01*
X145978486Y-138437164D01*
X145654790Y-138276301D01*
X145305931Y-138181678D01*
X144945316Y-138156933D01*
X144586802Y-138203015D01*
X144244167Y-138318154D01*
X144021514Y-138437164D01*
X143901626Y-138722020D01*
X123598374Y-138722020D01*
X123478486Y-138437164D01*
X123154790Y-138276301D01*
X122805931Y-138181678D01*
X122445316Y-138156933D01*
X122086802Y-138203015D01*
X121744167Y-138318154D01*
X121521514Y-138437164D01*
X121401626Y-138722020D01*
X101098374Y-138722020D01*
X100978486Y-138437164D01*
X100654790Y-138276301D01*
X100305931Y-138181678D01*
X99945316Y-138156933D01*
X99586802Y-138203015D01*
X99244167Y-138318154D01*
X99021514Y-138437164D01*
X98901626Y-138722020D01*
X77598374Y-138722020D01*
X77478486Y-138437164D01*
X77154790Y-138276301D01*
X76805931Y-138181678D01*
X76445316Y-138156933D01*
X76086802Y-138203015D01*
X75744167Y-138318154D01*
X75521514Y-138437164D01*
X75401626Y-138722020D01*
X56098374Y-138722020D01*
X55978486Y-138437164D01*
X55654790Y-138276301D01*
X55305931Y-138181678D01*
X54945316Y-138156933D01*
X54586802Y-138203015D01*
X54244167Y-138318154D01*
X54021514Y-138437164D01*
X53901626Y-138722020D01*
X52127000Y-138722020D01*
X52127000Y-138127000D01*
X148873000Y-138127000D01*
X148873000Y-141873000D01*
G37*
X148873000Y-141873000D02*
X52127000Y-141873000D01*
X52127000Y-141277980D01*
X53901626Y-141277980D01*
X54021514Y-141562836D01*
X54345210Y-141723699D01*
X54694069Y-141818322D01*
X55054684Y-141843067D01*
X55413198Y-141796985D01*
X55755833Y-141681846D01*
X55978486Y-141562836D01*
X56098374Y-141277980D01*
X75401626Y-141277980D01*
X75521514Y-141562836D01*
X75845210Y-141723699D01*
X76194069Y-141818322D01*
X76554684Y-141843067D01*
X76913198Y-141796985D01*
X77255833Y-141681846D01*
X77478486Y-141562836D01*
X77598374Y-141277980D01*
X98901626Y-141277980D01*
X99021514Y-141562836D01*
X99345210Y-141723699D01*
X99694069Y-141818322D01*
X100054684Y-141843067D01*
X100413198Y-141796985D01*
X100755833Y-141681846D01*
X100978486Y-141562836D01*
X101098374Y-141277980D01*
X121401626Y-141277980D01*
X121521514Y-141562836D01*
X121845210Y-141723699D01*
X122194069Y-141818322D01*
X122554684Y-141843067D01*
X122913198Y-141796985D01*
X123255833Y-141681846D01*
X123478486Y-141562836D01*
X123598374Y-141277980D01*
X143901626Y-141277980D01*
X144021514Y-141562836D01*
X144345210Y-141723699D01*
X144694069Y-141818322D01*
X145054684Y-141843067D01*
X145413198Y-141796985D01*
X145755833Y-141681846D01*
X145978486Y-141562836D01*
X146098374Y-141277980D01*
X145000000Y-140179605D01*
X143901626Y-141277980D01*
X123598374Y-141277980D01*
X122500000Y-140179605D01*
X121401626Y-141277980D01*
X101098374Y-141277980D01*
X100000000Y-140179605D01*
X98901626Y-141277980D01*
X77598374Y-141277980D01*
X76500000Y-140179605D01*
X75401626Y-141277980D01*
X56098374Y-141277980D01*
X55000000Y-140179605D01*
X53901626Y-141277980D01*
X52127000Y-141277980D01*
X52127000Y-140054684D01*
X53156933Y-140054684D01*
X53203015Y-140413198D01*
X53318154Y-140755833D01*
X53437164Y-140978486D01*
X53722020Y-141098374D01*
X54820395Y-140000000D01*
X55179605Y-140000000D01*
X56277980Y-141098374D01*
X56562836Y-140978486D01*
X56723699Y-140654790D01*
X56818322Y-140305931D01*
X56835562Y-140054684D01*
X74656933Y-140054684D01*
X74703015Y-140413198D01*
X74818154Y-140755833D01*
X74937164Y-140978486D01*
X75222020Y-141098374D01*
X76320395Y-140000000D01*
X76679605Y-140000000D01*
X77777980Y-141098374D01*
X78062836Y-140978486D01*
X78223699Y-140654790D01*
X78318322Y-140305931D01*
X78335562Y-140054684D01*
X98156933Y-140054684D01*
X98203015Y-140413198D01*
X98318154Y-140755833D01*
X98437164Y-140978486D01*
X98722020Y-141098374D01*
X99820395Y-140000000D01*
X100179605Y-140000000D01*
X101277980Y-141098374D01*
X101562836Y-140978486D01*
X101723699Y-140654790D01*
X101818322Y-140305931D01*
X101835562Y-140054684D01*
X120656933Y-140054684D01*
X120703015Y-140413198D01*
X120818154Y-140755833D01*
X120937164Y-140978486D01*
X121222020Y-141098374D01*
X122320395Y-140000000D01*
X122679605Y-140000000D01*
X123777980Y-141098374D01*
X124062836Y-140978486D01*
X124223699Y-140654790D01*
X124318322Y-140305931D01*
X124335562Y-140054684D01*
X143156933Y-140054684D01*
X143203015Y-140413198D01*
X143318154Y-140755833D01*
X143437164Y-140978486D01*
X143722020Y-141098374D01*
X144820395Y-140000000D01*
X145179605Y-140000000D01*
X146277980Y-141098374D01*
X146562836Y-140978486D01*
X146723699Y-140654790D01*
X146818322Y-140305931D01*
X146843067Y-139945316D01*
X146796985Y-139586802D01*
X146681846Y-139244167D01*
X146562836Y-139021514D01*
X146277980Y-138901626D01*
X145179605Y-140000000D01*
X144820395Y-140000000D01*
X143722020Y-138901626D01*
X143437164Y-139021514D01*
X143276301Y-139345210D01*
X143181678Y-139694069D01*
X143156933Y-140054684D01*
X124335562Y-140054684D01*
X124343067Y-139945316D01*
X124296985Y-139586802D01*
X124181846Y-139244167D01*
X124062836Y-139021514D01*
X123777980Y-138901626D01*
X122679605Y-140000000D01*
X122320395Y-140000000D01*
X121222020Y-138901626D01*
X120937164Y-139021514D01*
X120776301Y-139345210D01*
X120681678Y-139694069D01*
X120656933Y-140054684D01*
X101835562Y-140054684D01*
X101843067Y-139945316D01*
X101796985Y-139586802D01*
X101681846Y-139244167D01*
X101562836Y-139021514D01*
X101277980Y-138901626D01*
X100179605Y-140000000D01*
X99820395Y-140000000D01*
X98722020Y-138901626D01*
X98437164Y-139021514D01*
X98276301Y-139345210D01*
X98181678Y-139694069D01*
X98156933Y-140054684D01*
X78335562Y-140054684D01*
X78343067Y-139945316D01*
X78296985Y-139586802D01*
X78181846Y-139244167D01*
X78062836Y-139021514D01*
X77777980Y-138901626D01*
X76679605Y-140000000D01*
X76320395Y-140000000D01*
X75222020Y-138901626D01*
X74937164Y-139021514D01*
X74776301Y-139345210D01*
X74681678Y-139694069D01*
X74656933Y-140054684D01*
X56835562Y-140054684D01*
X56843067Y-139945316D01*
X56796985Y-139586802D01*
X56681846Y-139244167D01*
X56562836Y-139021514D01*
X56277980Y-138901626D01*
X55179605Y-140000000D01*
X54820395Y-140000000D01*
X53722020Y-138901626D01*
X53437164Y-139021514D01*
X53276301Y-139345210D01*
X53181678Y-139694069D01*
X53156933Y-140054684D01*
X52127000Y-140054684D01*
X52127000Y-138722020D01*
X53901626Y-138722020D01*
X55000000Y-139820395D01*
X56098374Y-138722020D01*
X75401626Y-138722020D01*
X76500000Y-139820395D01*
X77598374Y-138722020D01*
X98901626Y-138722020D01*
X100000000Y-139820395D01*
X101098374Y-138722020D01*
X121401626Y-138722020D01*
X122500000Y-139820395D01*
X123598374Y-138722020D01*
X143901626Y-138722020D01*
X145000000Y-139820395D01*
X146098374Y-138722020D01*
X145978486Y-138437164D01*
X145654790Y-138276301D01*
X145305931Y-138181678D01*
X144945316Y-138156933D01*
X144586802Y-138203015D01*
X144244167Y-138318154D01*
X144021514Y-138437164D01*
X143901626Y-138722020D01*
X123598374Y-138722020D01*
X123478486Y-138437164D01*
X123154790Y-138276301D01*
X122805931Y-138181678D01*
X122445316Y-138156933D01*
X122086802Y-138203015D01*
X121744167Y-138318154D01*
X121521514Y-138437164D01*
X121401626Y-138722020D01*
X101098374Y-138722020D01*
X100978486Y-138437164D01*
X100654790Y-138276301D01*
X100305931Y-138181678D01*
X99945316Y-138156933D01*
X99586802Y-138203015D01*
X99244167Y-138318154D01*
X99021514Y-138437164D01*
X98901626Y-138722020D01*
X77598374Y-138722020D01*
X77478486Y-138437164D01*
X77154790Y-138276301D01*
X76805931Y-138181678D01*
X76445316Y-138156933D01*
X76086802Y-138203015D01*
X75744167Y-138318154D01*
X75521514Y-138437164D01*
X75401626Y-138722020D01*
X56098374Y-138722020D01*
X55978486Y-138437164D01*
X55654790Y-138276301D01*
X55305931Y-138181678D01*
X54945316Y-138156933D01*
X54586802Y-138203015D01*
X54244167Y-138318154D01*
X54021514Y-138437164D01*
X53901626Y-138722020D01*
X52127000Y-138722020D01*
X52127000Y-138127000D01*
X148873000Y-138127000D01*
X148873000Y-141873000D01*
M02*
