G04 #@! TF.GenerationSoftware,KiCad,Pcbnew,5.1.5-1.fc30*
G04 #@! TF.CreationDate,2021-07-11T13:39:18+02:00*
G04 #@! TF.ProjectId,pcb-haloscope,7063622d-6861-46c6-9f73-636f70652e6b,rev?*
G04 #@! TF.SameCoordinates,Original*
G04 #@! TF.FileFunction,Legend,Top*
G04 #@! TF.FilePolarity,Positive*
%FSLAX46Y46*%
G04 Gerber Fmt 4.6, Leading zero omitted, Abs format (unit mm)*
G04 Created by KiCad (PCBNEW 5.1.5-1.fc30) date 2021-07-11 13:39:18*
%MOMM*%
%LPD*%
G04 APERTURE LIST*
%ADD10C,0.150000*%
G04 APERTURE END LIST*
D10*
X54238095Y-47420380D02*
X54238095Y-48229904D01*
X54285714Y-48325142D01*
X54333333Y-48372761D01*
X54428571Y-48420380D01*
X54619047Y-48420380D01*
X54714285Y-48372761D01*
X54761904Y-48325142D01*
X54809523Y-48229904D01*
X54809523Y-47420380D01*
X55809523Y-48420380D02*
X55238095Y-48420380D01*
X55523809Y-48420380D02*
X55523809Y-47420380D01*
X55428571Y-47563238D01*
X55333333Y-47658476D01*
X55238095Y-47706095D01*
X75738095Y-47420380D02*
X75738095Y-48229904D01*
X75785714Y-48325142D01*
X75833333Y-48372761D01*
X75928571Y-48420380D01*
X76119047Y-48420380D01*
X76214285Y-48372761D01*
X76261904Y-48325142D01*
X76309523Y-48229904D01*
X76309523Y-47420380D01*
X76738095Y-47515619D02*
X76785714Y-47468000D01*
X76880952Y-47420380D01*
X77119047Y-47420380D01*
X77214285Y-47468000D01*
X77261904Y-47515619D01*
X77309523Y-47610857D01*
X77309523Y-47706095D01*
X77261904Y-47848952D01*
X76690476Y-48420380D01*
X77309523Y-48420380D01*
X99238095Y-47420380D02*
X99238095Y-48229904D01*
X99285714Y-48325142D01*
X99333333Y-48372761D01*
X99428571Y-48420380D01*
X99619047Y-48420380D01*
X99714285Y-48372761D01*
X99761904Y-48325142D01*
X99809523Y-48229904D01*
X99809523Y-47420380D01*
X100190476Y-47420380D02*
X100809523Y-47420380D01*
X100476190Y-47801333D01*
X100619047Y-47801333D01*
X100714285Y-47848952D01*
X100761904Y-47896571D01*
X100809523Y-47991809D01*
X100809523Y-48229904D01*
X100761904Y-48325142D01*
X100714285Y-48372761D01*
X100619047Y-48420380D01*
X100333333Y-48420380D01*
X100238095Y-48372761D01*
X100190476Y-48325142D01*
X121738095Y-47420380D02*
X121738095Y-48229904D01*
X121785714Y-48325142D01*
X121833333Y-48372761D01*
X121928571Y-48420380D01*
X122119047Y-48420380D01*
X122214285Y-48372761D01*
X122261904Y-48325142D01*
X122309523Y-48229904D01*
X122309523Y-47420380D01*
X123214285Y-47753714D02*
X123214285Y-48420380D01*
X122976190Y-47372761D02*
X122738095Y-48087047D01*
X123357142Y-48087047D01*
X144238095Y-47420380D02*
X144238095Y-48229904D01*
X144285714Y-48325142D01*
X144333333Y-48372761D01*
X144428571Y-48420380D01*
X144619047Y-48420380D01*
X144714285Y-48372761D01*
X144761904Y-48325142D01*
X144809523Y-48229904D01*
X144809523Y-47420380D01*
X145761904Y-47420380D02*
X145285714Y-47420380D01*
X145238095Y-47896571D01*
X145285714Y-47848952D01*
X145380952Y-47801333D01*
X145619047Y-47801333D01*
X145714285Y-47848952D01*
X145761904Y-47896571D01*
X145809523Y-47991809D01*
X145809523Y-48229904D01*
X145761904Y-48325142D01*
X145714285Y-48372761D01*
X145619047Y-48420380D01*
X145380952Y-48420380D01*
X145285714Y-48372761D01*
X145238095Y-48325142D01*
X54238095Y-137420380D02*
X54238095Y-138229904D01*
X54285714Y-138325142D01*
X54333333Y-138372761D01*
X54428571Y-138420380D01*
X54619047Y-138420380D01*
X54714285Y-138372761D01*
X54761904Y-138325142D01*
X54809523Y-138229904D01*
X54809523Y-137420380D01*
X55714285Y-137420380D02*
X55523809Y-137420380D01*
X55428571Y-137468000D01*
X55380952Y-137515619D01*
X55285714Y-137658476D01*
X55238095Y-137848952D01*
X55238095Y-138229904D01*
X55285714Y-138325142D01*
X55333333Y-138372761D01*
X55428571Y-138420380D01*
X55619047Y-138420380D01*
X55714285Y-138372761D01*
X55761904Y-138325142D01*
X55809523Y-138229904D01*
X55809523Y-137991809D01*
X55761904Y-137896571D01*
X55714285Y-137848952D01*
X55619047Y-137801333D01*
X55428571Y-137801333D01*
X55333333Y-137848952D01*
X55285714Y-137896571D01*
X55238095Y-137991809D01*
X75738095Y-137420380D02*
X75738095Y-138229904D01*
X75785714Y-138325142D01*
X75833333Y-138372761D01*
X75928571Y-138420380D01*
X76119047Y-138420380D01*
X76214285Y-138372761D01*
X76261904Y-138325142D01*
X76309523Y-138229904D01*
X76309523Y-137420380D01*
X76690476Y-137420380D02*
X77357142Y-137420380D01*
X76928571Y-138420380D01*
X99238095Y-137420380D02*
X99238095Y-138229904D01*
X99285714Y-138325142D01*
X99333333Y-138372761D01*
X99428571Y-138420380D01*
X99619047Y-138420380D01*
X99714285Y-138372761D01*
X99761904Y-138325142D01*
X99809523Y-138229904D01*
X99809523Y-137420380D01*
X100428571Y-137848952D02*
X100333333Y-137801333D01*
X100285714Y-137753714D01*
X100238095Y-137658476D01*
X100238095Y-137610857D01*
X100285714Y-137515619D01*
X100333333Y-137468000D01*
X100428571Y-137420380D01*
X100619047Y-137420380D01*
X100714285Y-137468000D01*
X100761904Y-137515619D01*
X100809523Y-137610857D01*
X100809523Y-137658476D01*
X100761904Y-137753714D01*
X100714285Y-137801333D01*
X100619047Y-137848952D01*
X100428571Y-137848952D01*
X100333333Y-137896571D01*
X100285714Y-137944190D01*
X100238095Y-138039428D01*
X100238095Y-138229904D01*
X100285714Y-138325142D01*
X100333333Y-138372761D01*
X100428571Y-138420380D01*
X100619047Y-138420380D01*
X100714285Y-138372761D01*
X100761904Y-138325142D01*
X100809523Y-138229904D01*
X100809523Y-138039428D01*
X100761904Y-137944190D01*
X100714285Y-137896571D01*
X100619047Y-137848952D01*
X121738095Y-137420380D02*
X121738095Y-138229904D01*
X121785714Y-138325142D01*
X121833333Y-138372761D01*
X121928571Y-138420380D01*
X122119047Y-138420380D01*
X122214285Y-138372761D01*
X122261904Y-138325142D01*
X122309523Y-138229904D01*
X122309523Y-137420380D01*
X122833333Y-138420380D02*
X123023809Y-138420380D01*
X123119047Y-138372761D01*
X123166666Y-138325142D01*
X123261904Y-138182285D01*
X123309523Y-137991809D01*
X123309523Y-137610857D01*
X123261904Y-137515619D01*
X123214285Y-137468000D01*
X123119047Y-137420380D01*
X122928571Y-137420380D01*
X122833333Y-137468000D01*
X122785714Y-137515619D01*
X122738095Y-137610857D01*
X122738095Y-137848952D01*
X122785714Y-137944190D01*
X122833333Y-137991809D01*
X122928571Y-138039428D01*
X123119047Y-138039428D01*
X123214285Y-137991809D01*
X123261904Y-137944190D01*
X123309523Y-137848952D01*
X143761904Y-137420380D02*
X143761904Y-138229904D01*
X143809523Y-138325142D01*
X143857142Y-138372761D01*
X143952380Y-138420380D01*
X144142857Y-138420380D01*
X144238095Y-138372761D01*
X144285714Y-138325142D01*
X144333333Y-138229904D01*
X144333333Y-137420380D01*
X145333333Y-138420380D02*
X144761904Y-138420380D01*
X145047619Y-138420380D02*
X145047619Y-137420380D01*
X144952380Y-137563238D01*
X144857142Y-137658476D01*
X144761904Y-137706095D01*
X145952380Y-137420380D02*
X146047619Y-137420380D01*
X146142857Y-137468000D01*
X146190476Y-137515619D01*
X146238095Y-137610857D01*
X146285714Y-137801333D01*
X146285714Y-138039428D01*
X146238095Y-138229904D01*
X146190476Y-138325142D01*
X146142857Y-138372761D01*
X146047619Y-138420380D01*
X145952380Y-138420380D01*
X145857142Y-138372761D01*
X145809523Y-138325142D01*
X145761904Y-138229904D01*
X145714285Y-138039428D01*
X145714285Y-137801333D01*
X145761904Y-137610857D01*
X145809523Y-137515619D01*
X145857142Y-137468000D01*
X145952380Y-137420380D01*
M02*
